<svg xmlns="http://www.w3.org/2000/svg" version="1.1" xmlns:xlink="http://www.w3.org/1999/xlink" xmlns:svgjs="http://svgjs.dev/svgjs" width="1903" height="572" preserveAspectRatio="none" viewBox="0 0 1903 572">
    <g mask="url(&quot;#SvgjsMask1456&quot;)" fill="none">
        <rect width="1903" height="572" x="0" y="0" fill="url(&quot;#SvgjsLinearGradient1457&quot;)"></rect>
        <g mask="url(&quot;#SvgjsMask1458&quot;)">
            <path d="M1512.5 137.5L1487.5 162.5L1487.5 237.5L1237.5 487.5L1112.5 487.5" stroke-width="4.17" stroke="rgba(223, 219, 229, 1)"></path>
            <path d="M1506.25 137.5 a6.25 6.25 0 1 0 12.5 0 a6.25 6.25 0 1 0 -12.5 0zM1106.25 487.5 a6.25 6.25 0 1 0 12.5 0 a6.25 6.25 0 1 0 -12.5 0z" fill="rgba(223, 219, 229, 1)"></path>
            <path d="M1687.5 487.5L1662.5 487.5L1462.5 287.5" stroke-width="4.17" stroke="rgba(223, 219, 229, 1)"></path>
            <path d="M1681.25 487.5 a6.25 6.25 0 1 0 12.5 0 a6.25 6.25 0 1 0 -12.5 0zM1456.25 287.5 a6.25 6.25 0 1 0 12.5 0 a6.25 6.25 0 1 0 -12.5 0z" fill="rgba(223, 219, 229, 1)"></path>
            <path d="M437.5 87.5L212.5 312.5L212.5 562.5" stroke-width="4.17" stroke="rgba(223, 219, 229, 1)"></path>
            <path d="M431.25 87.5 a6.25 6.25 0 1 0 12.5 0 a6.25 6.25 0 1 0 -12.5 0zM206.25 562.5 a6.25 6.25 0 1 0 12.5 0 a6.25 6.25 0 1 0 -12.5 0z" fill="rgba(223, 219, 229, 1)"></path>
            <path d="M1012.5 112.5L862.5 262.5L837.5 262.5L737.5 362.5L687.5 362.5L662.5 387.5L637.5 387.5L537.5 487.5" stroke-width="4.17" stroke="rgba(223, 219, 229, 1)"></path>
            <path d="M1006.25 112.5 a6.25 6.25 0 1 0 12.5 0 a6.25 6.25 0 1 0 -12.5 0zM531.25 487.5 a6.25 6.25 0 1 0 12.5 0 a6.25 6.25 0 1 0 -12.5 0z" fill="rgba(223, 219, 229, 1)"></path>
            <path d="M1012.5 337.5L1337.5 12.5L1437.5 12.5L1487.5 62.5" stroke-width="4.17" stroke="rgba(223, 219, 229, 1)"></path>
            <path d="M1006.25 337.5 a6.25 6.25 0 1 0 12.5 0 a6.25 6.25 0 1 0 -12.5 0zM1481.25 62.5 a6.25 6.25 0 1 0 12.5 0 a6.25 6.25 0 1 0 -12.5 0z" fill="rgba(223, 219, 229, 1)"></path>
            <path d="M212.5 287.5L437.5 62.5L437.5 12.5" stroke-width="4.17" stroke="rgba(223, 219, 229, 1)"></path>
            <path d="M206.25 287.5 a6.25 6.25 0 1 0 12.5 0 a6.25 6.25 0 1 0 -12.5 0zM431.25 12.5 a6.25 6.25 0 1 0 12.5 0 a6.25 6.25 0 1 0 -12.5 0z" fill="rgba(223, 219, 229, 1)"></path>
            <path d="M737.5 487.5L737.5 387.5L837.5 287.5L1037.5 287.5L1112.5 212.5" stroke-width="4.17" stroke="rgba(223, 219, 229, 1)"></path>
            <path d="M731.25 487.5 a6.25 6.25 0 1 0 12.5 0 a6.25 6.25 0 1 0 -12.5 0zM1106.25 212.5 a6.25 6.25 0 1 0 12.5 0 a6.25 6.25 0 1 0 -12.5 0z" fill="rgba(223, 219, 229, 1)"></path>
            <path d="M512.5 87.5L737.5 87.5L812.5 12.5L987.5 12.5" stroke-width="4.17" stroke="rgba(223, 219, 229, 1)"></path>
            <path d="M506.25 87.5 a6.25 6.25 0 1 0 12.5 0 a6.25 6.25 0 1 0 -12.5 0zM981.25 12.5 a6.25 6.25 0 1 0 12.5 0 a6.25 6.25 0 1 0 -12.5 0z" fill="rgba(223, 219, 229, 1)"></path>
            <path d="M1287.5 512.5L862.5 512.5L812.5 562.5" stroke-width="4.17" stroke="rgba(223, 219, 229, 1)"></path>
            <path d="M1281.25 512.5 a6.25 6.25 0 1 0 12.5 0 a6.25 6.25 0 1 0 -12.5 0zM806.25 562.5 a6.25 6.25 0 1 0 12.5 0 a6.25 6.25 0 1 0 -12.5 0z" fill="rgba(223, 219, 229, 1)"></path>
            <path d="M962.5 37.5L812.5 37.5L487.5 362.5" stroke-width="4.17" stroke="rgba(223, 219, 229, 1)"></path>
            <path d="M956.25 37.5 a6.25 6.25 0 1 0 12.5 0 a6.25 6.25 0 1 0 -12.5 0zM481.25 362.5 a6.25 6.25 0 1 0 12.5 0 a6.25 6.25 0 1 0 -12.5 0z" fill="rgba(223, 219, 229, 1)"></path>
            <path d="M712.5 312.5L762.5 312.5L1012.5 62.5L1012.5 12.5" stroke-width="4.17" stroke="rgba(223, 219, 229, 1)"></path>
            <path d="M706.25 312.5 a6.25 6.25 0 1 0 12.5 0 a6.25 6.25 0 1 0 -12.5 0zM1006.25 12.5 a6.25 6.25 0 1 0 12.5 0 a6.25 6.25 0 1 0 -12.5 0z" fill="rgba(223, 219, 229, 1)"></path>
            <path d="M487.5 137.5L412.5 212.5L337.5 212.5L237.5 312.5L237.5 537.5" stroke-width="4.17" stroke="rgba(223, 219, 229, 1)"></path>
            <path d="M481.25 137.5 a6.25 6.25 0 1 0 12.5 0 a6.25 6.25 0 1 0 -12.5 0zM231.25 537.5 a6.25 6.25 0 1 0 12.5 0 a6.25 6.25 0 1 0 -12.5 0z" fill="rgba(223, 219, 229, 1)"></path>
            <path d="M687.5 62.5L637.5 12.5L462.5 12.5" stroke-width="4.17" stroke="rgba(223, 219, 229, 1)"></path>
            <path d="M681.25 62.5 a6.25 6.25 0 1 0 12.5 0 a6.25 6.25 0 1 0 -12.5 0zM456.25 12.5 a6.25 6.25 0 1 0 12.5 0 a6.25 6.25 0 1 0 -12.5 0z" fill="rgba(223, 219, 229, 1)"></path>
            <path d="M412.5 337.5L612.5 137.5L612.5 112.5" stroke-width="4.17" stroke="rgba(223, 219, 229, 1)"></path>
            <path d="M406.25 337.5 a6.25 6.25 0 1 0 12.5 0 a6.25 6.25 0 1 0 -12.5 0zM606.25 112.5 a6.25 6.25 0 1 0 12.5 0 a6.25 6.25 0 1 0 -12.5 0z" fill="rgba(223, 219, 229, 1)"></path>
            <path d="M212.5 62.5L212.5 12.5" stroke-width="4.17" stroke="rgba(223, 219, 229, 1)"></path>
            <path d="M206.25 62.5 a6.25 6.25 0 1 0 12.5 0 a6.25 6.25 0 1 0 -12.5 0zM206.25 12.5 a6.25 6.25 0 1 0 12.5 0 a6.25 6.25 0 1 0 -12.5 0z" fill="rgba(223, 219, 229, 1)"></path>
            <path d="M87.5 162.5L12.5 237.5L12.5 362.5L187.5 537.5L187.5 562.5" stroke-width="4.17" stroke="rgba(223, 219, 229, 1)"></path>
            <path d="M81.25 162.5 a6.25 6.25 0 1 0 12.5 0 a6.25 6.25 0 1 0 -12.5 0zM181.25 562.5 a6.25 6.25 0 1 0 12.5 0 a6.25 6.25 0 1 0 -12.5 0z" fill="rgba(223, 219, 229, 1)"></path>
            <path d="M1637.5 137.5L1637.5 87.5L1562.5 12.5L1537.5 12.5L1512.5 37.5L1512.5 112.5L1737.5 337.5" stroke-width="4.17" stroke="rgba(223, 219, 229, 1)"></path>
            <path d="M1631.25 137.5 a6.25 6.25 0 1 0 12.5 0 a6.25 6.25 0 1 0 -12.5 0zM1731.25 337.5 a6.25 6.25 0 1 0 12.5 0 a6.25 6.25 0 1 0 -12.5 0z" fill="rgba(223, 219, 229, 1)"></path>
            <path d="M1387.5 537.5L1362.5 562.5L1287.5 562.5L1262.5 537.5L1062.5 537.5L1037.5 562.5L1012.5 562.5L987.5 537.5L912.5 537.5" stroke-width="4.17" stroke="rgba(223, 219, 229, 1)"></path>
            <path d="M1381.25 537.5 a6.25 6.25 0 1 0 12.5 0 a6.25 6.25 0 1 0 -12.5 0zM906.25 537.5 a6.25 6.25 0 1 0 12.5 0 a6.25 6.25 0 1 0 -12.5 0z" fill="rgba(223, 219, 229, 1)"></path>
            <path d="M1487.5 562.5L1387.5 562.5" stroke-width="4.17" stroke="rgba(223, 219, 229, 1)"></path>
            <path d="M1481.25 562.5 a6.25 6.25 0 1 0 12.5 0 a6.25 6.25 0 1 0 -12.5 0zM1381.25 562.5 a6.25 6.25 0 1 0 12.5 0 a6.25 6.25 0 1 0 -12.5 0z" fill="rgba(223, 219, 229, 1)"></path>
            <path d="M1212.5 362.5L1112.5 262.5" stroke-width="4.17" stroke="rgba(223, 219, 229, 1)"></path>
            <path d="M1206.25 362.5 a6.25 6.25 0 1 0 12.5 0 a6.25 6.25 0 1 0 -12.5 0zM1106.25 262.5 a6.25 6.25 0 1 0 12.5 0 a6.25 6.25 0 1 0 -12.5 0z" fill="rgba(223, 219, 229, 1)"></path>
            <path d="M962.5 87.5L887.5 162.5L712.5 162.5L487.5 387.5" stroke-width="4.17" stroke="rgba(223, 219, 229, 1)"></path>
            <path d="M956.25 87.5 a6.25 6.25 0 1 0 12.5 0 a6.25 6.25 0 1 0 -12.5 0zM481.25 387.5 a6.25 6.25 0 1 0 12.5 0 a6.25 6.25 0 1 0 -12.5 0z" fill="rgba(223, 219, 229, 1)"></path>
            <path d="M1812.5 462.5L1912.5 562.5" stroke-width="4.17" stroke="rgba(223, 219, 229, 1)"></path>
            <path d="M1806.25 462.5 a6.25 6.25 0 1 0 12.5 0 a6.25 6.25 0 1 0 -12.5 0zM1906.25 562.5 a6.25 6.25 0 1 0 12.5 0 a6.25 6.25 0 1 0 -12.5 0z" fill="rgba(223, 219, 229, 1)"></path>
            <path d="M1737.5 462.5L1512.5 237.5L1512.5 162.5" stroke-width="4.17" stroke="rgba(223, 219, 229, 1)"></path>
            <path d="M1731.25 462.5 a6.25 6.25 0 1 0 12.5 0 a6.25 6.25 0 1 0 -12.5 0zM1506.25 162.5 a6.25 6.25 0 1 0 12.5 0 a6.25 6.25 0 1 0 -12.5 0z" fill="rgba(223, 219, 229, 1)"></path>
            <path d="M1062.5 112.5L1087.5 87.5L1237.5 87.5L1312.5 12.5" stroke-width="4.17" stroke="rgba(223, 219, 229, 1)"></path>
            <path d="M1056.25 112.5 a6.25 6.25 0 1 0 12.5 0 a6.25 6.25 0 1 0 -12.5 0zM1306.25 12.5 a6.25 6.25 0 1 0 12.5 0 a6.25 6.25 0 1 0 -12.5 0z" fill="rgba(223, 219, 229, 1)"></path>
            <path d="M1912.5 37.5L1687.5 262.5" stroke-width="4.17" stroke="rgba(223, 219, 229, 1)"></path>
            <path d="M1906.25 37.5 a6.25 6.25 0 1 0 12.5 0 a6.25 6.25 0 1 0 -12.5 0zM1681.25 262.5 a6.25 6.25 0 1 0 12.5 0 a6.25 6.25 0 1 0 -12.5 0z" fill="rgba(223, 219, 229, 1)"></path>
            <path d="M1837.5 137.5L1712.5 262.5L1712.5 287.5L1912.5 487.5L1912.5 537.5" stroke-width="4.17" stroke="rgba(223, 219, 229, 1)"></path>
            <path d="M1831.25 137.5 a6.25 6.25 0 1 0 12.5 0 a6.25 6.25 0 1 0 -12.5 0zM1906.25 537.5 a6.25 6.25 0 1 0 12.5 0 a6.25 6.25 0 1 0 -12.5 0z" fill="rgba(223, 219, 229, 1)"></path>
            <path d="M1437.5 62.5L1387.5 112.5L1262.5 112.5L1212.5 162.5L1212.5 262.5L1287.5 337.5L1362.5 337.5" stroke-width="4.17" stroke="rgba(223, 219, 229, 1)"></path>
            <path d="M1431.25 62.5 a6.25 6.25 0 1 0 12.5 0 a6.25 6.25 0 1 0 -12.5 0zM1356.25 337.5 a6.25 6.25 0 1 0 12.5 0 a6.25 6.25 0 1 0 -12.5 0z" fill="rgba(223, 219, 229, 1)"></path>
            <path d="M112.5 562.5L162.5 562.5" stroke-width="4.17" stroke="rgba(223, 219, 229, 1)"></path>
            <path d="M106.25 562.5 a6.25 6.25 0 1 0 12.5 0 a6.25 6.25 0 1 0 -12.5 0zM156.25 562.5 a6.25 6.25 0 1 0 12.5 0 a6.25 6.25 0 1 0 -12.5 0z" fill="rgba(223, 219, 229, 1)"></path>
            <path d="M1712.5 162.5L1712.5 87.5L1637.5 12.5L1587.5 12.5" stroke-width="4.17" stroke="rgba(223, 219, 229, 1)"></path>
            <path d="M1706.25 162.5 a6.25 6.25 0 1 0 12.5 0 a6.25 6.25 0 1 0 -12.5 0zM1581.25 12.5 a6.25 6.25 0 1 0 12.5 0 a6.25 6.25 0 1 0 -12.5 0z" fill="rgba(223, 219, 229, 1)"></path>
            <path d="M1612.5 262.5L1562.5 262.5L1537.5 237.5L1537.5 162.5" stroke-width="4.17" stroke="rgba(223, 219, 229, 1)"></path>
            <path d="M1606.25 262.5 a6.25 6.25 0 1 0 12.5 0 a6.25 6.25 0 1 0 -12.5 0zM1531.25 162.5 a6.25 6.25 0 1 0 12.5 0 a6.25 6.25 0 1 0 -12.5 0z" fill="rgba(223, 219, 229, 1)"></path>
            <path d="M312.5 537.5L337.5 562.5L787.5 562.5" stroke-width="4.17" stroke="rgba(223, 219, 229, 1)"></path>
            <path d="M306.25 537.5 a6.25 6.25 0 1 0 12.5 0 a6.25 6.25 0 1 0 -12.5 0zM781.25 562.5 a6.25 6.25 0 1 0 12.5 0 a6.25 6.25 0 1 0 -12.5 0z" fill="rgba(223, 219, 229, 1)"></path>
            <path d="M1537.5 37.5L1537.5 112.5L1662.5 237.5L1687.5 237.5L1912.5 12.5" stroke-width="4.17" stroke="rgba(223, 219, 229, 1)"></path>
            <path d="M1531.25 37.5 a6.25 6.25 0 1 0 12.5 0 a6.25 6.25 0 1 0 -12.5 0zM1906.25 12.5 a6.25 6.25 0 1 0 12.5 0 a6.25 6.25 0 1 0 -12.5 0z" fill="rgba(223, 219, 229, 1)"></path>
            <path d="M1412.5 512.5L1562.5 512.5L1587.5 487.5L1587.5 437.5L1462.5 312.5L1437.5 312.5L1337.5 412.5" stroke-width="4.17" stroke="rgba(223, 219, 229, 1)"></path>
            <path d="M1406.25 512.5 a6.25 6.25 0 1 0 12.5 0 a6.25 6.25 0 1 0 -12.5 0zM1331.25 412.5 a6.25 6.25 0 1 0 12.5 0 a6.25 6.25 0 1 0 -12.5 0z" fill="rgba(223, 219, 229, 1)"></path>
            <path d="M1837.5 362.5L1912.5 287.5L1912.5 262.5L1837.5 187.5L1837.5 162.5L1912.5 87.5L1912.5 62.5" stroke-width="4.17" stroke="rgba(223, 219, 229, 1)"></path>
            <path d="M1831.25 362.5 a6.25 6.25 0 1 0 12.5 0 a6.25 6.25 0 1 0 -12.5 0zM1906.25 62.5 a6.25 6.25 0 1 0 12.5 0 a6.25 6.25 0 1 0 -12.5 0z" fill="rgba(223, 219, 229, 1)"></path>
            <path d="M687.5 37.5L712.5 62.5L737.5 62.5L787.5 12.5" stroke-width="4.17" stroke="rgba(223, 219, 229, 1)"></path>
            <path d="M681.25 37.5 a6.25 6.25 0 1 0 12.5 0 a6.25 6.25 0 1 0 -12.5 0zM781.25 12.5 a6.25 6.25 0 1 0 12.5 0 a6.25 6.25 0 1 0 -12.5 0z" fill="rgba(223, 219, 229, 1)"></path>
            <path d="M1762.5 387.5L1737.5 412.5L1712.5 412.5L1587.5 287.5" stroke-width="4.17" stroke="rgba(223, 219, 229, 1)"></path>
            <path d="M1756.25 387.5 a6.25 6.25 0 1 0 12.5 0 a6.25 6.25 0 1 0 -12.5 0zM1581.25 287.5 a6.25 6.25 0 1 0 12.5 0 a6.25 6.25 0 1 0 -12.5 0z" fill="rgba(223, 219, 229, 1)"></path>
            <path d="M562.5 37.5L537.5 62.5L462.5 62.5" stroke-width="4.17" stroke="rgba(223, 219, 229, 1)"></path>
            <path d="M556.25 37.5 a6.25 6.25 0 1 0 12.5 0 a6.25 6.25 0 1 0 -12.5 0zM456.25 62.5 a6.25 6.25 0 1 0 12.5 0 a6.25 6.25 0 1 0 -12.5 0z" fill="rgba(223, 219, 229, 1)"></path>
            <path d="M412.5 137.5L362.5 187.5" stroke-width="4.17" stroke="rgba(223, 219, 229, 1)"></path>
            <path d="M406.25 137.5 a6.25 6.25 0 1 0 12.5 0 a6.25 6.25 0 1 0 -12.5 0zM356.25 187.5 a6.25 6.25 0 1 0 12.5 0 a6.25 6.25 0 1 0 -12.5 0z" fill="rgba(223, 219, 229, 1)"></path>
            <path d="M1862.5 412.5L1862.5 362.5L1912.5 312.5" stroke-width="4.17" stroke="rgba(223, 219, 229, 1)"></path>
            <path d="M1856.25 412.5 a6.25 6.25 0 1 0 12.5 0 a6.25 6.25 0 1 0 -12.5 0zM1906.25 312.5 a6.25 6.25 0 1 0 12.5 0 a6.25 6.25 0 1 0 -12.5 0z" fill="rgba(223, 219, 229, 1)"></path>
            <path d="M562.5 137.5L562.5 162.5L262.5 462.5L262.5 562.5" stroke-width="4.17" stroke="rgba(223, 219, 229, 1)"></path>
            <path d="M556.25 137.5 a6.25 6.25 0 1 0 12.5 0 a6.25 6.25 0 1 0 -12.5 0zM256.25 562.5 a6.25 6.25 0 1 0 12.5 0 a6.25 6.25 0 1 0 -12.5 0z" fill="rgba(223, 219, 229, 1)"></path>
            <path d="M1562.5 87.5L1562.5 112.5L1662.5 212.5L1687.5 212.5L1712.5 187.5" stroke-width="4.17" stroke="rgba(223, 219, 229, 1)"></path>
            <path d="M1556.25 87.5 a6.25 6.25 0 1 0 12.5 0 a6.25 6.25 0 1 0 -12.5 0zM1706.25 187.5 a6.25 6.25 0 1 0 12.5 0 a6.25 6.25 0 1 0 -12.5 0z" fill="rgba(223, 219, 229, 1)"></path>
            <path d="M87.5 137.5L12.5 62.5L12.5 12.5" stroke-width="4.17" stroke="rgba(223, 219, 229, 1)"></path>
            <path d="M81.25 137.5 a6.25 6.25 0 1 0 12.5 0 a6.25 6.25 0 1 0 -12.5 0zM6.25 12.5 a6.25 6.25 0 1 0 12.5 0 a6.25 6.25 0 1 0 -12.5 0z" fill="rgba(223, 219, 229, 1)"></path>
            <path d="M1762.5 137.5L1762.5 12.5" stroke-width="4.17" stroke="rgba(223, 219, 229, 1)"></path>
            <path d="M1756.25 137.5 a6.25 6.25 0 1 0 12.5 0 a6.25 6.25 0 1 0 -12.5 0zM1756.25 12.5 a6.25 6.25 0 1 0 12.5 0 a6.25 6.25 0 1 0 -12.5 0z" fill="rgba(223, 219, 229, 1)"></path>
            <path d="M12.5 387.5L162.5 537.5" stroke-width="4.17" stroke="rgba(223, 219, 229, 1)"></path>
            <path d="M6.25 387.5 a6.25 6.25 0 1 0 12.5 0 a6.25 6.25 0 1 0 -12.5 0zM156.25 537.5 a6.25 6.25 0 1 0 12.5 0 a6.25 6.25 0 1 0 -12.5 0z" fill="rgba(223, 219, 229, 1)"></path>
            <path d="M337.5 62.5L237.5 62.5L37.5 262.5L37.5 362.5L112.5 437.5" stroke-width="4.17" stroke="rgba(223, 219, 229, 1)"></path>
            <path d="M331.25 62.5 a6.25 6.25 0 1 0 12.5 0 a6.25 6.25 0 1 0 -12.5 0zM106.25 437.5 a6.25 6.25 0 1 0 12.5 0 a6.25 6.25 0 1 0 -12.5 0z" fill="rgba(223, 219, 229, 1)"></path>
            <path d="M962.5 362.5L962.5 312.5" stroke-width="4.17" stroke="rgba(223, 219, 229, 1)"></path>
            <path d="M956.25 362.5 a6.25 6.25 0 1 0 12.5 0 a6.25 6.25 0 1 0 -12.5 0zM956.25 312.5 a6.25 6.25 0 1 0 12.5 0 a6.25 6.25 0 1 0 -12.5 0z" fill="rgba(223, 219, 229, 1)"></path>
            <path d="M187.5 312.5L187.5 237.5L137.5 187.5" stroke-width="4.17" stroke="rgba(223, 219, 229, 1)"></path>
            <path d="M181.25 312.5 a6.25 6.25 0 1 0 12.5 0 a6.25 6.25 0 1 0 -12.5 0zM131.25 187.5 a6.25 6.25 0 1 0 12.5 0 a6.25 6.25 0 1 0 -12.5 0z" fill="rgba(223, 219, 229, 1)"></path>
            <path d="M1212.5 412.5L1087.5 287.5" stroke-width="4.17" stroke="rgba(223, 219, 229, 1)"></path>
            <path d="M1206.25 412.5 a6.25 6.25 0 1 0 12.5 0 a6.25 6.25 0 1 0 -12.5 0zM1081.25 287.5 a6.25 6.25 0 1 0 12.5 0 a6.25 6.25 0 1 0 -12.5 0z" fill="rgba(223, 219, 229, 1)"></path>
            <path d="M1537.5 412.5L1562.5 437.5L1562.5 487.5" stroke-width="4.17" stroke="rgba(223, 219, 229, 1)"></path>
            <path d="M1531.25 412.5 a6.25 6.25 0 1 0 12.5 0 a6.25 6.25 0 1 0 -12.5 0zM1556.25 487.5 a6.25 6.25 0 1 0 12.5 0 a6.25 6.25 0 1 0 -12.5 0z" fill="rgba(223, 219, 229, 1)"></path>
            <path d="M837.5 487.5L762.5 412.5L762.5 387.5L837.5 312.5L937.5 312.5" stroke-width="4.17" stroke="rgba(223, 219, 229, 1)"></path>
            <path d="M831.25 487.5 a6.25 6.25 0 1 0 12.5 0 a6.25 6.25 0 1 0 -12.5 0zM931.25 312.5 a6.25 6.25 0 1 0 12.5 0 a6.25 6.25 0 1 0 -12.5 0z" fill="rgba(223, 219, 229, 1)"></path>
            <path d="M1362.5 62.5L1337.5 87.5L1287.5 87.5" stroke-width="4.17" stroke="rgba(223, 219, 229, 1)"></path>
            <path d="M1356.25 62.5 a6.25 6.25 0 1 0 12.5 0 a6.25 6.25 0 1 0 -12.5 0zM1281.25 87.5 a6.25 6.25 0 1 0 12.5 0 a6.25 6.25 0 1 0 -12.5 0z" fill="rgba(223, 219, 229, 1)"></path>
            <path d="M362.5 37.5L387.5 62.5L412.5 62.5" stroke-width="4.17" stroke="rgba(223, 219, 229, 1)"></path>
            <path d="M356.25 37.5 a6.25 6.25 0 1 0 12.5 0 a6.25 6.25 0 1 0 -12.5 0zM406.25 62.5 a6.25 6.25 0 1 0 12.5 0 a6.25 6.25 0 1 0 -12.5 0z" fill="rgba(223, 219, 229, 1)"></path>
            <path d="M637.5 337.5L637.5 362.5L462.5 537.5L412.5 537.5L312.5 437.5" stroke-width="4.17" stroke="rgba(223, 219, 229, 1)"></path>
            <path d="M631.25 337.5 a6.25 6.25 0 1 0 12.5 0 a6.25 6.25 0 1 0 -12.5 0zM306.25 437.5 a6.25 6.25 0 1 0 12.5 0 a6.25 6.25 0 1 0 -12.5 0z" fill="rgba(223, 219, 229, 1)"></path>
            <path d="M1662.5 312.5L1737.5 387.5" stroke-width="4.17" stroke="rgba(223, 219, 229, 1)"></path>
            <path d="M1656.25 312.5 a6.25 6.25 0 1 0 12.5 0 a6.25 6.25 0 1 0 -12.5 0zM1731.25 387.5 a6.25 6.25 0 1 0 12.5 0 a6.25 6.25 0 1 0 -12.5 0z" fill="rgba(223, 219, 229, 1)"></path>
            <path d="M1062.5 37.5L1012.5 87.5" stroke-width="4.17" stroke="rgba(223, 219, 229, 1)"></path>
            <path d="M1056.25 37.5 a6.25 6.25 0 1 0 12.5 0 a6.25 6.25 0 1 0 -12.5 0zM1006.25 87.5 a6.25 6.25 0 1 0 12.5 0 a6.25 6.25 0 1 0 -12.5 0z" fill="rgba(223, 219, 229, 1)"></path>
            <path d="M712.5 287.5L662.5 237.5" stroke-width="4.17" stroke="rgba(223, 219, 229, 1)"></path>
            <path d="M706.25 287.5 a6.25 6.25 0 1 0 12.5 0 a6.25 6.25 0 1 0 -12.5 0zM656.25 237.5 a6.25 6.25 0 1 0 12.5 0 a6.25 6.25 0 1 0 -12.5 0z" fill="rgba(223, 219, 229, 1)"></path>
            <path d="M487.5 112.5L537.5 162.5" stroke-width="4.17" stroke="rgba(223, 219, 229, 1)"></path>
            <path d="M481.25 112.5 a6.25 6.25 0 1 0 12.5 0 a6.25 6.25 0 1 0 -12.5 0zM531.25 162.5 a6.25 6.25 0 1 0 12.5 0 a6.25 6.25 0 1 0 -12.5 0z" fill="rgba(223, 219, 229, 1)"></path>
            <path d="M562.5 262.5L712.5 112.5" stroke-width="4.17" stroke="rgba(223, 219, 229, 1)"></path>
            <path d="M556.25 262.5 a6.25 6.25 0 1 0 12.5 0 a6.25 6.25 0 1 0 -12.5 0zM706.25 112.5 a6.25 6.25 0 1 0 12.5 0 a6.25 6.25 0 1 0 -12.5 0z" fill="rgba(223, 219, 229, 1)"></path>
            <path d="M837.5 337.5L837.5 387.5L812.5 412.5L787.5 412.5" stroke-width="4.17" stroke="rgba(223, 219, 229, 1)"></path>
            <path d="M831.25 337.5 a6.25 6.25 0 1 0 12.5 0 a6.25 6.25 0 1 0 -12.5 0zM781.25 412.5 a6.25 6.25 0 1 0 12.5 0 a6.25 6.25 0 1 0 -12.5 0z" fill="rgba(223, 219, 229, 1)"></path>
            <path d="M987.5 437.5L987.5 312.5" stroke-width="4.17" stroke="rgba(223, 219, 229, 1)"></path>
            <path d="M981.25 437.5 a6.25 6.25 0 1 0 12.5 0 a6.25 6.25 0 1 0 -12.5 0zM981.25 312.5 a6.25 6.25 0 1 0 12.5 0 a6.25 6.25 0 1 0 -12.5 0z" fill="rgba(223, 219, 229, 1)"></path>
            <path d="M1887.5 362.5L1887.5 437.5L1912.5 462.5" stroke-width="4.17" stroke="rgba(223, 219, 229, 1)"></path>
            <path d="M1881.25 362.5 a6.25 6.25 0 1 0 12.5 0 a6.25 6.25 0 1 0 -12.5 0zM1906.25 462.5 a6.25 6.25 0 1 0 12.5 0 a6.25 6.25 0 1 0 -12.5 0z" fill="rgba(223, 219, 229, 1)"></path>
            <path d="M1387.5 162.5L1387.5 137.5L1412.5 112.5L1487.5 112.5" stroke-width="4.17" stroke="rgba(223, 219, 229, 1)"></path>
            <path d="M1381.25 162.5 a6.25 6.25 0 1 0 12.5 0 a6.25 6.25 0 1 0 -12.5 0zM1481.25 112.5 a6.25 6.25 0 1 0 12.5 0 a6.25 6.25 0 1 0 -12.5 0z" fill="rgba(223, 219, 229, 1)"></path>
            <path d="M287.5 387.5L287.5 412.5L262.5 437.5" stroke-width="4.17" stroke="rgba(223, 219, 229, 1)"></path>
            <path d="M281.25 387.5 a6.25 6.25 0 1 0 12.5 0 a6.25 6.25 0 1 0 -12.5 0zM256.25 437.5 a6.25 6.25 0 1 0 12.5 0 a6.25 6.25 0 1 0 -12.5 0z" fill="rgba(223, 219, 229, 1)"></path>
            <path d="M1162.5 437.5L1212.5 437.5L1237.5 462.5" stroke-width="4.17" stroke="rgba(223, 219, 229, 1)"></path>
            <path d="M1156.25 437.5 a6.25 6.25 0 1 0 12.5 0 a6.25 6.25 0 1 0 -12.5 0zM1231.25 462.5 a6.25 6.25 0 1 0 12.5 0 a6.25 6.25 0 1 0 -12.5 0z" fill="rgba(223, 219, 229, 1)"></path>
            <path d="M587.5 62.5L662.5 62.5" stroke-width="4.17" stroke="rgba(223, 219, 229, 1)"></path>
            <path d="M581.25 62.5 a6.25 6.25 0 1 0 12.5 0 a6.25 6.25 0 1 0 -12.5 0zM656.25 62.5 a6.25 6.25 0 1 0 12.5 0 a6.25 6.25 0 1 0 -12.5 0z" fill="rgba(223, 219, 229, 1)"></path>
            <path d="M1062.5 437.5L1012.5 437.5L962.5 487.5L862.5 487.5L812.5 437.5" stroke-width="4.17" stroke="rgba(223, 219, 229, 1)"></path>
            <path d="M1056.25 437.5 a6.25 6.25 0 1 0 12.5 0 a6.25 6.25 0 1 0 -12.5 0zM806.25 437.5 a6.25 6.25 0 1 0 12.5 0 a6.25 6.25 0 1 0 -12.5 0z" fill="rgba(223, 219, 229, 1)"></path>
            <path d="M1162.5 62.5L1212.5 12.5L1287.5 12.5" stroke-width="4.17" stroke="rgba(223, 219, 229, 1)"></path>
            <path d="M1156.25 62.5 a6.25 6.25 0 1 0 12.5 0 a6.25 6.25 0 1 0 -12.5 0zM1281.25 12.5 a6.25 6.25 0 1 0 12.5 0 a6.25 6.25 0 1 0 -12.5 0z" fill="rgba(223, 219, 229, 1)"></path>
            <path d="M637.5 412.5L512.5 537.5L487.5 537.5" stroke-width="4.17" stroke="rgba(223, 219, 229, 1)"></path>
            <path d="M631.25 412.5 a6.25 6.25 0 1 0 12.5 0 a6.25 6.25 0 1 0 -12.5 0zM481.25 537.5 a6.25 6.25 0 1 0 12.5 0 a6.25 6.25 0 1 0 -12.5 0z" fill="rgba(223, 219, 229, 1)"></path>
            <path d="M637.5 462.5L712.5 462.5" stroke-width="4.17" stroke="rgba(223, 219, 229, 1)"></path>
            <path d="M631.25 462.5 a6.25 6.25 0 1 0 12.5 0 a6.25 6.25 0 1 0 -12.5 0zM706.25 462.5 a6.25 6.25 0 1 0 12.5 0 a6.25 6.25 0 1 0 -12.5 0z" fill="rgba(223, 219, 229, 1)"></path>
            <path d="M1637.5 37.5L1637.5 62.5L1687.5 112.5L1687.5 187.5" stroke-width="4.17" stroke="rgba(223, 219, 229, 1)"></path>
            <path d="M1631.25 37.5 a6.25 6.25 0 1 0 12.5 0 a6.25 6.25 0 1 0 -12.5 0zM1681.25 187.5 a6.25 6.25 0 1 0 12.5 0 a6.25 6.25 0 1 0 -12.5 0z" fill="rgba(223, 219, 229, 1)"></path>
            <path d="M1862.5 562.5L1812.5 512.5L1587.5 512.5L1537.5 562.5L1512.5 562.5L1487.5 537.5L1412.5 537.5" stroke-width="4.17" stroke="rgba(223, 219, 229, 1)"></path>
            <path d="M1856.25 562.5 a6.25 6.25 0 1 0 12.5 0 a6.25 6.25 0 1 0 -12.5 0zM1406.25 537.5 a6.25 6.25 0 1 0 12.5 0 a6.25 6.25 0 1 0 -12.5 0z" fill="rgba(223, 219, 229, 1)"></path>
            <path d="M737.5 287.5L737.5 187.5" stroke-width="4.17" stroke="rgba(223, 219, 229, 1)"></path>
            <path d="M731.25 287.5 a6.25 6.25 0 1 0 12.5 0 a6.25 6.25 0 1 0 -12.5 0zM731.25 187.5 a6.25 6.25 0 1 0 12.5 0 a6.25 6.25 0 1 0 -12.5 0z" fill="rgba(223, 219, 229, 1)"></path>
            <path d="M1037.5 187.5L1062.5 212.5L1062.5 237.5L1037.5 262.5L887.5 262.5" stroke-width="4.17" stroke="rgba(223, 219, 229, 1)"></path>
            <path d="M1031.25 187.5 a6.25 6.25 0 1 0 12.5 0 a6.25 6.25 0 1 0 -12.5 0zM881.25 262.5 a6.25 6.25 0 1 0 12.5 0 a6.25 6.25 0 1 0 -12.5 0z" fill="rgba(223, 219, 229, 1)"></path>
            <path d="M337.5 37.5L362.5 12.5L412.5 12.5" stroke-width="4.17" stroke="rgba(223, 219, 229, 1)"></path>
            <path d="M331.25 37.5 a6.25 6.25 0 1 0 12.5 0 a6.25 6.25 0 1 0 -12.5 0zM406.25 12.5 a6.25 6.25 0 1 0 12.5 0 a6.25 6.25 0 1 0 -12.5 0z" fill="rgba(223, 219, 229, 1)"></path>
            <path d="M1112.5 462.5L1087.5 462.5L1062.5 487.5L987.5 487.5" stroke-width="4.17" stroke="rgba(223, 219, 229, 1)"></path>
            <path d="M1106.25 462.5 a6.25 6.25 0 1 0 12.5 0 a6.25 6.25 0 1 0 -12.5 0zM981.25 487.5 a6.25 6.25 0 1 0 12.5 0 a6.25 6.25 0 1 0 -12.5 0z" fill="rgba(223, 219, 229, 1)"></path>
            <path d="M1112.5 387.5L1162.5 387.5L1187.5 412.5" stroke-width="4.17" stroke="rgba(223, 219, 229, 1)"></path>
            <path d="M1106.25 387.5 a6.25 6.25 0 1 0 12.5 0 a6.25 6.25 0 1 0 -12.5 0zM1181.25 412.5 a6.25 6.25 0 1 0 12.5 0 a6.25 6.25 0 1 0 -12.5 0z" fill="rgba(223, 219, 229, 1)"></path>
            <path d="M37.5 487.5L12.5 512.5L12.5 562.5" stroke-width="4.17" stroke="rgba(223, 219, 229, 1)"></path>
            <path d="M31.25 487.5 a6.25 6.25 0 1 0 12.5 0 a6.25 6.25 0 1 0 -12.5 0zM6.25 562.5 a6.25 6.25 0 1 0 12.5 0 a6.25 6.25 0 1 0 -12.5 0z" fill="rgba(223, 219, 229, 1)"></path>
            <path d="M462.5 412.5L562.5 412.5L612.5 362.5L612.5 287.5L637.5 262.5L662.5 262.5L687.5 287.5L687.5 312.5L662.5 337.5L662.5 362.5" stroke-width="4.17" stroke="rgba(223, 219, 229, 1)"></path>
            <path d="M456.25 412.5 a6.25 6.25 0 1 0 12.5 0 a6.25 6.25 0 1 0 -12.5 0zM656.25 362.5 a6.25 6.25 0 1 0 12.5 0 a6.25 6.25 0 1 0 -12.5 0z" fill="rgba(223, 219, 229, 1)"></path>
            <path d="M537.5 387.5L537.5 362.5L587.5 312.5" stroke-width="4.17" stroke="rgba(223, 219, 229, 1)"></path>
            <path d="M531.25 387.5 a6.25 6.25 0 1 0 12.5 0 a6.25 6.25 0 1 0 -12.5 0zM581.25 312.5 a6.25 6.25 0 1 0 12.5 0 a6.25 6.25 0 1 0 -12.5 0z" fill="rgba(223, 219, 229, 1)"></path>
            <path d="M1462.5 162.5L1337.5 287.5L1262.5 287.5L1237.5 262.5L1237.5 212.5L1312.5 137.5L1362.5 137.5" stroke-width="4.17" stroke="rgba(223, 219, 229, 1)"></path>
            <path d="M1456.25 162.5 a6.25 6.25 0 1 0 12.5 0 a6.25 6.25 0 1 0 -12.5 0zM1356.25 137.5 a6.25 6.25 0 1 0 12.5 0 a6.25 6.25 0 1 0 -12.5 0z" fill="rgba(223, 219, 229, 1)"></path>
            <path d="M1437.5 462.5L1387.5 412.5L1362.5 412.5L1287.5 487.5L1262.5 487.5" stroke-width="4.17" stroke="rgba(223, 219, 229, 1)"></path>
            <path d="M1431.25 462.5 a6.25 6.25 0 1 0 12.5 0 a6.25 6.25 0 1 0 -12.5 0zM1256.25 487.5 a6.25 6.25 0 1 0 12.5 0 a6.25 6.25 0 1 0 -12.5 0z" fill="rgba(223, 219, 229, 1)"></path>
            <path d="M1162.5 462.5L1212.5 462.5" stroke-width="4.17" stroke="rgba(223, 219, 229, 1)"></path>
            <path d="M1156.25 462.5 a6.25 6.25 0 1 0 12.5 0 a6.25 6.25 0 1 0 -12.5 0zM1206.25 462.5 a6.25 6.25 0 1 0 12.5 0 a6.25 6.25 0 1 0 -12.5 0z" fill="rgba(223, 219, 229, 1)"></path>
            <path d="M1462.5 237.5L1462.5 187.5" stroke-width="4.17" stroke="rgba(223, 219, 229, 1)"></path>
            <path d="M1456.25 237.5 a6.25 6.25 0 1 0 12.5 0 a6.25 6.25 0 1 0 -12.5 0zM1456.25 187.5 a6.25 6.25 0 1 0 12.5 0 a6.25 6.25 0 1 0 -12.5 0z" fill="rgba(223, 219, 229, 1)"></path>
            <path d="M1237.5 562.5L1062.5 562.5" stroke-width="4.17" stroke="rgba(223, 219, 229, 1)"></path>
            <path d="M1231.25 562.5 a6.25 6.25 0 1 0 12.5 0 a6.25 6.25 0 1 0 -12.5 0zM1056.25 562.5 a6.25 6.25 0 1 0 12.5 0 a6.25 6.25 0 1 0 -12.5 0z" fill="rgba(223, 219, 229, 1)"></path>
            <path d="M1162.5 287.5L1162.5 262.5L1187.5 237.5L1187.5 187.5" stroke-width="4.17" stroke="rgba(223, 219, 229, 1)"></path>
            <path d="M1156.25 287.5 a6.25 6.25 0 1 0 12.5 0 a6.25 6.25 0 1 0 -12.5 0zM1181.25 187.5 a6.25 6.25 0 1 0 12.5 0 a6.25 6.25 0 1 0 -12.5 0z" fill="rgba(223, 219, 229, 1)"></path>
            <path d="M1812.5 212.5L1837.5 212.5L1887.5 262.5L1887.5 287.5L1812.5 362.5" stroke-width="4.17" stroke="rgba(223, 219, 229, 1)"></path>
            <path d="M1806.25 212.5 a6.25 6.25 0 1 0 12.5 0 a6.25 6.25 0 1 0 -12.5 0zM1806.25 362.5 a6.25 6.25 0 1 0 12.5 0 a6.25 6.25 0 1 0 -12.5 0z" fill="rgba(223, 219, 229, 1)"></path>
            <path d="M1862.5 487.5L1862.5 462.5L1787.5 387.5" stroke-width="4.17" stroke="rgba(223, 219, 229, 1)"></path>
            <path d="M1856.25 487.5 a6.25 6.25 0 1 0 12.5 0 a6.25 6.25 0 1 0 -12.5 0zM1781.25 387.5 a6.25 6.25 0 1 0 12.5 0 a6.25 6.25 0 1 0 -12.5 0z" fill="rgba(223, 219, 229, 1)"></path>
            <path d="M837.5 512.5L812.5 537.5L787.5 537.5L762.5 512.5L587.5 512.5L562.5 537.5L537.5 537.5" stroke-width="4.17" stroke="rgba(223, 219, 229, 1)"></path>
            <path d="M831.25 512.5 a6.25 6.25 0 1 0 12.5 0 a6.25 6.25 0 1 0 -12.5 0zM531.25 537.5 a6.25 6.25 0 1 0 12.5 0 a6.25 6.25 0 1 0 -12.5 0z" fill="rgba(223, 219, 229, 1)"></path>
            <path d="M212.5 162.5L212.5 112.5L237.5 87.5L262.5 87.5" stroke-width="4.17" stroke="rgba(223, 219, 229, 1)"></path>
            <path d="M206.25 162.5 a6.25 6.25 0 1 0 12.5 0 a6.25 6.25 0 1 0 -12.5 0zM256.25 87.5 a6.25 6.25 0 1 0 12.5 0 a6.25 6.25 0 1 0 -12.5 0z" fill="rgba(223, 219, 229, 1)"></path>
            <path d="M487.5 312.5L362.5 437.5L337.5 437.5" stroke-width="4.17" stroke="rgba(223, 219, 229, 1)"></path>
            <path d="M481.25 312.5 a6.25 6.25 0 1 0 12.5 0 a6.25 6.25 0 1 0 -12.5 0zM331.25 437.5 a6.25 6.25 0 1 0 12.5 0 a6.25 6.25 0 1 0 -12.5 0z" fill="rgba(223, 219, 229, 1)"></path>
            <path d="M287.5 137.5L312.5 112.5L362.5 112.5" stroke-width="4.17" stroke="rgba(223, 219, 229, 1)"></path>
            <path d="M281.25 137.5 a6.25 6.25 0 1 0 12.5 0 a6.25 6.25 0 1 0 -12.5 0zM356.25 112.5 a6.25 6.25 0 1 0 12.5 0 a6.25 6.25 0 1 0 -12.5 0z" fill="rgba(223, 219, 229, 1)"></path>
            <path d="M262.5 137.5L262.5 212.5L212.5 262.5" stroke-width="4.17" stroke="rgba(223, 219, 229, 1)"></path>
            <path d="M256.25 137.5 a6.25 6.25 0 1 0 12.5 0 a6.25 6.25 0 1 0 -12.5 0zM206.25 262.5 a6.25 6.25 0 1 0 12.5 0 a6.25 6.25 0 1 0 -12.5 0z" fill="rgba(223, 219, 229, 1)"></path>
            <path d="M1812.5 287.5L1737.5 287.5" stroke-width="4.17" stroke="rgba(223, 219, 229, 1)"></path>
            <path d="M1806.25 287.5 a6.25 6.25 0 1 0 12.5 0 a6.25 6.25 0 1 0 -12.5 0zM1731.25 287.5 a6.25 6.25 0 1 0 12.5 0 a6.25 6.25 0 1 0 -12.5 0z" fill="rgba(223, 219, 229, 1)"></path>
            <path d="M112.5 387.5L112.5 287.5L87.5 262.5L87.5 237.5L112.5 212.5L137.5 212.5L162.5 237.5L162.5 487.5" stroke-width="4.17" stroke="rgba(223, 219, 229, 1)"></path>
            <path d="M106.25 387.5 a6.25 6.25 0 1 0 12.5 0 a6.25 6.25 0 1 0 -12.5 0zM156.25 487.5 a6.25 6.25 0 1 0 12.5 0 a6.25 6.25 0 1 0 -12.5 0z" fill="rgba(223, 219, 229, 1)"></path>
            <path d="M1437.5 487.5L1537.5 487.5" stroke-width="4.17" stroke="rgba(223, 219, 229, 1)"></path>
            <path d="M1431.25 487.5 a6.25 6.25 0 1 0 12.5 0 a6.25 6.25 0 1 0 -12.5 0zM1531.25 487.5 a6.25 6.25 0 1 0 12.5 0 a6.25 6.25 0 1 0 -12.5 0z" fill="rgba(223, 219, 229, 1)"></path>
            <path d="M1037.5 237.5L912.5 237.5" stroke-width="4.17" stroke="rgba(223, 219, 229, 1)"></path>
            <path d="M1031.25 237.5 a6.25 6.25 0 1 0 12.5 0 a6.25 6.25 0 1 0 -12.5 0zM906.25 237.5 a6.25 6.25 0 1 0 12.5 0 a6.25 6.25 0 1 0 -12.5 0z" fill="rgba(223, 219, 229, 1)"></path>
            <path d="M1737.5 562.5L1712.5 537.5L1587.5 537.5L1562.5 562.5" stroke-width="4.17" stroke="rgba(223, 219, 229, 1)"></path>
            <path d="M1731.25 562.5 a6.25 6.25 0 1 0 12.5 0 a6.25 6.25 0 1 0 -12.5 0zM1556.25 562.5 a6.25 6.25 0 1 0 12.5 0 a6.25 6.25 0 1 0 -12.5 0z" fill="rgba(223, 219, 229, 1)"></path>
            <path d="M387.5 487.5L387.5 437.5L462.5 362.5" stroke-width="4.17" stroke="rgba(223, 219, 229, 1)"></path>
            <path d="M381.25 487.5 a6.25 6.25 0 1 0 12.5 0 a6.25 6.25 0 1 0 -12.5 0zM456.25 362.5 a6.25 6.25 0 1 0 12.5 0 a6.25 6.25 0 1 0 -12.5 0z" fill="rgba(223, 219, 229, 1)"></path>
            <path d="M1887.5 187.5L1887.5 212.5L1912.5 237.5" stroke-width="4.17" stroke="rgba(223, 219, 229, 1)"></path>
            <path d="M1881.25 187.5 a6.25 6.25 0 1 0 12.5 0 a6.25 6.25 0 1 0 -12.5 0zM1906.25 237.5 a6.25 6.25 0 1 0 12.5 0 a6.25 6.25 0 1 0 -12.5 0z" fill="rgba(223, 219, 229, 1)"></path>
            <path d="M912.5 462.5L962.5 462.5" stroke-width="4.17" stroke="rgba(223, 219, 229, 1)"></path>
            <path d="M906.25 462.5 a6.25 6.25 0 1 0 12.5 0 a6.25 6.25 0 1 0 -12.5 0zM956.25 462.5 a6.25 6.25 0 1 0 12.5 0 a6.25 6.25 0 1 0 -12.5 0z" fill="rgba(223, 219, 229, 1)"></path>
            <path d="M87.5 512.5L112.5 512.5L137.5 537.5" stroke-width="4.17" stroke="rgba(223, 219, 229, 1)"></path>
            <path d="M81.25 512.5 a6.25 6.25 0 1 0 12.5 0 a6.25 6.25 0 1 0 -12.5 0zM131.25 537.5 a6.25 6.25 0 1 0 12.5 0 a6.25 6.25 0 1 0 -12.5 0z" fill="rgba(223, 219, 229, 1)"></path>
            <path d="M1262.5 212.5L1312.5 262.5L1337.5 262.5L1412.5 187.5L1412.5 137.5" stroke-width="4.17" stroke="rgba(223, 219, 229, 1)"></path>
            <path d="M1256.25 212.5 a6.25 6.25 0 1 0 12.5 0 a6.25 6.25 0 1 0 -12.5 0zM1406.25 137.5 a6.25 6.25 0 1 0 12.5 0 a6.25 6.25 0 1 0 -12.5 0z" fill="rgba(223, 219, 229, 1)"></path>
            <path d="M1437.5 37.5L1387.5 87.5L1362.5 87.5" stroke-width="4.17" stroke="rgba(223, 219, 229, 1)"></path>
            <path d="M1431.25 37.5 a6.25 6.25 0 1 0 12.5 0 a6.25 6.25 0 1 0 -12.5 0zM1356.25 87.5 a6.25 6.25 0 1 0 12.5 0 a6.25 6.25 0 1 0 -12.5 0z" fill="rgba(223, 219, 229, 1)"></path>
            <path d="M212.5 237.5L237.5 212.5L237.5 112.5" stroke-width="4.17" stroke="rgba(223, 219, 229, 1)"></path>
            <path d="M206.25 237.5 a6.25 6.25 0 1 0 12.5 0 a6.25 6.25 0 1 0 -12.5 0zM231.25 112.5 a6.25 6.25 0 1 0 12.5 0 a6.25 6.25 0 1 0 -12.5 0z" fill="rgba(223, 219, 229, 1)"></path>
            <path d="M562.5 237.5L562.5 212.5L662.5 112.5L687.5 112.5" stroke-width="4.17" stroke="rgba(223, 219, 229, 1)"></path>
            <path d="M556.25 237.5 a6.25 6.25 0 1 0 12.5 0 a6.25 6.25 0 1 0 -12.5 0zM681.25 112.5 a6.25 6.25 0 1 0 12.5 0 a6.25 6.25 0 1 0 -12.5 0z" fill="rgba(223, 219, 229, 1)"></path>
            <path d="M112.5 62.5L112.5 37.5L87.5 12.5L37.5 12.5" stroke-width="4.17" stroke="rgba(223, 219, 229, 1)"></path>
            <path d="M106.25 62.5 a6.25 6.25 0 1 0 12.5 0 a6.25 6.25 0 1 0 -12.5 0zM31.25 12.5 a6.25 6.25 0 1 0 12.5 0 a6.25 6.25 0 1 0 -12.5 0z" fill="rgba(223, 219, 229, 1)"></path>
            <path d="M1137.5 362.5L1087.5 312.5L1062.5 312.5L1012.5 362.5L1012.5 412.5" stroke-width="4.17" stroke="rgba(223, 219, 229, 1)"></path>
            <path d="M1131.25 362.5 a6.25 6.25 0 1 0 12.5 0 a6.25 6.25 0 1 0 -12.5 0zM1006.25 412.5 a6.25 6.25 0 1 0 12.5 0 a6.25 6.25 0 1 0 -12.5 0z" fill="rgba(223, 219, 229, 1)"></path>
            <path d="M387.5 387.5L362.5 412.5L337.5 412.5" stroke-width="4.17" stroke="rgba(223, 219, 229, 1)"></path>
            <path d="M381.25 387.5 a6.25 6.25 0 1 0 12.5 0 a6.25 6.25 0 1 0 -12.5 0zM331.25 412.5 a6.25 6.25 0 1 0 12.5 0 a6.25 6.25 0 1 0 -12.5 0z" fill="rgba(223, 219, 229, 1)"></path>
            <path d="M1087.5 12.5L1187.5 12.5" stroke-width="4.17" stroke="rgba(223, 219, 229, 1)"></path>
            <path d="M1081.25 12.5 a6.25 6.25 0 1 0 12.5 0 a6.25 6.25 0 1 0 -12.5 0zM1181.25 12.5 a6.25 6.25 0 1 0 12.5 0 a6.25 6.25 0 1 0 -12.5 0z" fill="rgba(223, 219, 229, 1)"></path>
            <path d="M1287.5 387.5L1287.5 412.5L1262.5 437.5L1237.5 437.5" stroke-width="4.17" stroke="rgba(223, 219, 229, 1)"></path>
            <path d="M1281.25 387.5 a6.25 6.25 0 1 0 12.5 0 a6.25 6.25 0 1 0 -12.5 0zM1231.25 437.5 a6.25 6.25 0 1 0 12.5 0 a6.25 6.25 0 1 0 -12.5 0z" fill="rgba(223, 219, 229, 1)"></path>
            <path d="M337.5 12.5L312.5 37.5L287.5 37.5L262.5 12.5L237.5 12.5" stroke-width="4.17" stroke="rgba(223, 219, 229, 1)"></path>
            <path d="M331.25 12.5 a6.25 6.25 0 1 0 12.5 0 a6.25 6.25 0 1 0 -12.5 0zM231.25 12.5 a6.25 6.25 0 1 0 12.5 0 a6.25 6.25 0 1 0 -12.5 0z" fill="rgba(223, 219, 229, 1)"></path>
            <path d="M1112.5 112.5L1087.5 112.5L1062.5 137.5L1012.5 137.5L937.5 212.5" stroke-width="4.17" stroke="rgba(223, 219, 229, 1)"></path>
            <path d="M1106.25 112.5 a6.25 6.25 0 1 0 12.5 0 a6.25 6.25 0 1 0 -12.5 0zM931.25 212.5 a6.25 6.25 0 1 0 12.5 0 a6.25 6.25 0 1 0 -12.5 0z" fill="rgba(223, 219, 229, 1)"></path>
            <path d="M1762.5 237.5L1787.5 262.5L1862.5 262.5" stroke-width="4.17" stroke="rgba(223, 219, 229, 1)"></path>
            <path d="M1756.25 237.5 a6.25 6.25 0 1 0 12.5 0 a6.25 6.25 0 1 0 -12.5 0zM1856.25 262.5 a6.25 6.25 0 1 0 12.5 0 a6.25 6.25 0 1 0 -12.5 0z" fill="rgba(223, 219, 229, 1)"></path>
            <path d="M62.5 137.5L12.5 137.5" stroke-width="4.17" stroke="rgba(223, 219, 229, 1)"></path>
            <path d="M56.25 137.5 a6.25 6.25 0 1 0 12.5 0 a6.25 6.25 0 1 0 -12.5 0zM6.25 137.5 a6.25 6.25 0 1 0 12.5 0 a6.25 6.25 0 1 0 -12.5 0z" fill="rgba(223, 219, 229, 1)"></path>
            <path d="M862.5 387.5L837.5 412.5L837.5 437.5L862.5 462.5L887.5 462.5L962.5 387.5" stroke-width="4.17" stroke="rgba(223, 219, 229, 1)"></path>
            <path d="M856.25 387.5 a6.25 6.25 0 1 0 12.5 0 a6.25 6.25 0 1 0 -12.5 0zM956.25 387.5 a6.25 6.25 0 1 0 12.5 0 a6.25 6.25 0 1 0 -12.5 0z" fill="rgba(223, 219, 229, 1)"></path>
            <path d="M462.5 137.5L462.5 87.5" stroke-width="4.17" stroke="rgba(223, 219, 229, 1)"></path>
            <path d="M456.25 137.5 a6.25 6.25 0 1 0 12.5 0 a6.25 6.25 0 1 0 -12.5 0zM456.25 87.5 a6.25 6.25 0 1 0 12.5 0 a6.25 6.25 0 1 0 -12.5 0z" fill="rgba(223, 219, 229, 1)"></path>
            <path d="M1287.5 362.5L1187.5 262.5" stroke-width="4.17" stroke="rgba(223, 219, 229, 1)"></path>
            <path d="M1281.25 362.5 a6.25 6.25 0 1 0 12.5 0 a6.25 6.25 0 1 0 -12.5 0zM1181.25 262.5 a6.25 6.25 0 1 0 12.5 0 a6.25 6.25 0 1 0 -12.5 0z" fill="rgba(223, 219, 229, 1)"></path>
            <path d="M712.5 537.5L762.5 537.5" stroke-width="4.17" stroke="rgba(223, 219, 229, 1)"></path>
            <path d="M706.25 537.5 a6.25 6.25 0 1 0 12.5 0 a6.25 6.25 0 1 0 -12.5 0zM756.25 537.5 a6.25 6.25 0 1 0 12.5 0 a6.25 6.25 0 1 0 -12.5 0z" fill="rgba(223, 219, 229, 1)"></path>
            <path d="M1062.5 362.5L1137.5 437.5L1137.5 462.5" stroke-width="4.17" stroke="rgba(223, 219, 229, 1)"></path>
            <path d="M1056.25 362.5 a6.25 6.25 0 1 0 12.5 0 a6.25 6.25 0 1 0 -12.5 0zM1131.25 462.5 a6.25 6.25 0 1 0 12.5 0 a6.25 6.25 0 1 0 -12.5 0z" fill="rgba(223, 219, 229, 1)"></path>
            <path d="M1487.5 462.5L1462.5 462.5L1387.5 387.5" stroke-width="4.17" stroke="rgba(223, 219, 229, 1)"></path>
            <path d="M1481.25 462.5 a6.25 6.25 0 1 0 12.5 0 a6.25 6.25 0 1 0 -12.5 0zM1381.25 387.5 a6.25 6.25 0 1 0 12.5 0 a6.25 6.25 0 1 0 -12.5 0z" fill="rgba(223, 219, 229, 1)"></path>
            <path d="M812.5 212.5L787.5 187.5L762.5 187.5" stroke-width="4.17" stroke="rgba(223, 219, 229, 1)"></path>
            <path d="M806.25 212.5 a6.25 6.25 0 1 0 12.5 0 a6.25 6.25 0 1 0 -12.5 0zM756.25 187.5 a6.25 6.25 0 1 0 12.5 0 a6.25 6.25 0 1 0 -12.5 0z" fill="rgba(223, 219, 229, 1)"></path>
            <path d="M1037.5 112.5L1112.5 37.5L1137.5 37.5" stroke-width="4.17" stroke="rgba(223, 219, 229, 1)"></path>
            <path d="M1031.25 112.5 a6.25 6.25 0 1 0 12.5 0 a6.25 6.25 0 1 0 -12.5 0zM1131.25 37.5 a6.25 6.25 0 1 0 12.5 0 a6.25 6.25 0 1 0 -12.5 0z" fill="rgba(223, 219, 229, 1)"></path>
            <path d="M62.5 562.5L62.5 462.5L12.5 412.5" stroke-width="4.17" stroke="rgba(223, 219, 229, 1)"></path>
            <path d="M56.25 562.5 a6.25 6.25 0 1 0 12.5 0 a6.25 6.25 0 1 0 -12.5 0zM6.25 412.5 a6.25 6.25 0 1 0 12.5 0 a6.25 6.25 0 1 0 -12.5 0z" fill="rgba(223, 219, 229, 1)"></path>
            <path d="M187.5 162.5L212.5 187.5L212.5 212.5" stroke-width="4.17" stroke="rgba(223, 219, 229, 1)"></path>
            <path d="M181.25 162.5 a6.25 6.25 0 1 0 12.5 0 a6.25 6.25 0 1 0 -12.5 0zM206.25 212.5 a6.25 6.25 0 1 0 12.5 0 a6.25 6.25 0 1 0 -12.5 0z" fill="rgba(223, 219, 229, 1)"></path>
            <path d="M362.5 237.5L462.5 237.5L512.5 187.5L512.5 162.5" stroke-width="4.17" stroke="rgba(223, 219, 229, 1)"></path>
            <path d="M356.25 237.5 a6.25 6.25 0 1 0 12.5 0 a6.25 6.25 0 1 0 -12.5 0zM506.25 162.5 a6.25 6.25 0 1 0 12.5 0 a6.25 6.25 0 1 0 -12.5 0z" fill="rgba(223, 219, 229, 1)"></path>
            <path d="M337.5 487.5L337.5 512.5L362.5 537.5L387.5 537.5" stroke-width="4.17" stroke="rgba(223, 219, 229, 1)"></path>
            <path d="M331.25 487.5 a6.25 6.25 0 1 0 12.5 0 a6.25 6.25 0 1 0 -12.5 0zM381.25 537.5 a6.25 6.25 0 1 0 12.5 0 a6.25 6.25 0 1 0 -12.5 0z" fill="rgba(223, 219, 229, 1)"></path>
            <path d="M812.5 137.5L812.5 87.5" stroke-width="4.17" stroke="rgba(223, 219, 229, 1)"></path>
            <path d="M806.25 137.5 a6.25 6.25 0 1 0 12.5 0 a6.25 6.25 0 1 0 -12.5 0zM806.25 87.5 a6.25 6.25 0 1 0 12.5 0 a6.25 6.25 0 1 0 -12.5 0z" fill="rgba(223, 219, 229, 1)"></path>
            <path d="M1337.5 312.5L1287.5 312.5" stroke-width="4.17" stroke="rgba(223, 219, 229, 1)"></path>
            <path d="M1331.25 312.5 a6.25 6.25 0 1 0 12.5 0 a6.25 6.25 0 1 0 -12.5 0zM1281.25 312.5 a6.25 6.25 0 1 0 12.5 0 a6.25 6.25 0 1 0 -12.5 0z" fill="rgba(223, 219, 229, 1)"></path>
            <path d="M137.5 387.5L137.5 237.5" stroke-width="4.17" stroke="rgba(223, 219, 229, 1)"></path>
            <path d="M131.25 387.5 a6.25 6.25 0 1 0 12.5 0 a6.25 6.25 0 1 0 -12.5 0zM131.25 237.5 a6.25 6.25 0 1 0 12.5 0 a6.25 6.25 0 1 0 -12.5 0z" fill="rgba(223, 219, 229, 1)"></path>
            <path d="M437.5 412.5L487.5 462.5L512.5 462.5" stroke-width="4.17" stroke="rgba(223, 219, 229, 1)"></path>
            <path d="M431.25 412.5 a6.25 6.25 0 1 0 12.5 0 a6.25 6.25 0 1 0 -12.5 0zM506.25 462.5 a6.25 6.25 0 1 0 12.5 0 a6.25 6.25 0 1 0 -12.5 0z" fill="rgba(223, 219, 229, 1)"></path>
            <path d="M1862.5 287.5L1812.5 337.5L1787.5 337.5L1762.5 312.5" stroke-width="4.17" stroke="rgba(223, 219, 229, 1)"></path>
            <path d="M1856.25 287.5 a6.25 6.25 0 1 0 12.5 0 a6.25 6.25 0 1 0 -12.5 0zM1756.25 312.5 a6.25 6.25 0 1 0 12.5 0 a6.25 6.25 0 1 0 -12.5 0z" fill="rgba(223, 219, 229, 1)"></path>
            <path d="M1087.5 437.5L1037.5 387.5L1037.5 362.5" stroke-width="4.17" stroke="rgba(223, 219, 229, 1)"></path>
            <path d="M1081.25 437.5 a6.25 6.25 0 1 0 12.5 0 a6.25 6.25 0 1 0 -12.5 0zM1031.25 362.5 a6.25 6.25 0 1 0 12.5 0 a6.25 6.25 0 1 0 -12.5 0z" fill="rgba(223, 219, 229, 1)"></path>
            <path d="M1312.5 237.5L1312.5 162.5" stroke-width="4.17" stroke="rgba(223, 219, 229, 1)"></path>
            <path d="M1306.25 237.5 a6.25 6.25 0 1 0 12.5 0 a6.25 6.25 0 1 0 -12.5 0zM1306.25 162.5 a6.25 6.25 0 1 0 12.5 0 a6.25 6.25 0 1 0 -12.5 0z" fill="rgba(223, 219, 229, 1)"></path>
            <path d="M1462.5 412.5L1462.5 362.5L1437.5 337.5" stroke-width="4.17" stroke="rgba(223, 219, 229, 1)"></path>
            <path d="M1456.25 412.5 a6.25 6.25 0 1 0 12.5 0 a6.25 6.25 0 1 0 -12.5 0zM1431.25 337.5 a6.25 6.25 0 1 0 12.5 0 a6.25 6.25 0 1 0 -12.5 0z" fill="rgba(223, 219, 229, 1)"></path>
            <path d="M1487.5 287.5L1512.5 312.5L1562.5 312.5L1587.5 337.5L1587.5 362.5L1612.5 387.5" stroke-width="4.17" stroke="rgba(223, 219, 229, 1)"></path>
            <path d="M1481.25 287.5 a6.25 6.25 0 1 0 12.5 0 a6.25 6.25 0 1 0 -12.5 0zM1606.25 387.5 a6.25 6.25 0 1 0 12.5 0 a6.25 6.25 0 1 0 -12.5 0z" fill="rgba(223, 219, 229, 1)"></path>
            <path d="M1562.5 187.5L1612.5 237.5" stroke-width="4.17" stroke="rgba(223, 219, 229, 1)"></path>
            <path d="M1556.25 187.5 a6.25 6.25 0 1 0 12.5 0 a6.25 6.25 0 1 0 -12.5 0zM1606.25 237.5 a6.25 6.25 0 1 0 12.5 0 a6.25 6.25 0 1 0 -12.5 0z" fill="rgba(223, 219, 229, 1)"></path>
            <path d="M1262.5 412.5L1262.5 362.5L1237.5 337.5L1212.5 337.5L1187.5 312.5L1187.5 287.5" stroke-width="4.17" stroke="rgba(223, 219, 229, 1)"></path>
            <path d="M1256.25 412.5 a6.25 6.25 0 1 0 12.5 0 a6.25 6.25 0 1 0 -12.5 0zM1181.25 287.5 a6.25 6.25 0 1 0 12.5 0 a6.25 6.25 0 1 0 -12.5 0z" fill="rgba(223, 219, 229, 1)"></path>
            <path d="M1837.5 562.5L1812.5 537.5L1737.5 537.5" stroke-width="4.17" stroke="rgba(223, 219, 229, 1)"></path>
            <path d="M1831.25 562.5 a6.25 6.25 0 1 0 12.5 0 a6.25 6.25 0 1 0 -12.5 0zM1731.25 537.5 a6.25 6.25 0 1 0 12.5 0 a6.25 6.25 0 1 0 -12.5 0z" fill="rgba(223, 219, 229, 1)"></path>
            <path d="M1237.5 37.5L1212.5 37.5L1187.5 62.5" stroke-width="4.17" stroke="rgba(223, 219, 229, 1)"></path>
            <path d="M1231.25 37.5 a6.25 6.25 0 1 0 12.5 0 a6.25 6.25 0 1 0 -12.5 0zM1181.25 62.5 a6.25 6.25 0 1 0 12.5 0 a6.25 6.25 0 1 0 -12.5 0z" fill="rgba(223, 219, 229, 1)"></path>
            <path d="M187.5 437.5L187.5 337.5" stroke-width="4.17" stroke="rgba(223, 219, 229, 1)"></path>
            <path d="M181.25 437.5 a6.25 6.25 0 1 0 12.5 0 a6.25 6.25 0 1 0 -12.5 0zM181.25 337.5 a6.25 6.25 0 1 0 12.5 0 a6.25 6.25 0 1 0 -12.5 0z" fill="rgba(223, 219, 229, 1)"></path>
            <path d="M262.5 312.5L337.5 237.5" stroke-width="4.17" stroke="rgba(223, 219, 229, 1)"></path>
            <path d="M256.25 312.5 a6.25 6.25 0 1 0 12.5 0 a6.25 6.25 0 1 0 -12.5 0zM331.25 237.5 a6.25 6.25 0 1 0 12.5 0 a6.25 6.25 0 1 0 -12.5 0z" fill="rgba(223, 219, 229, 1)"></path>
            <path d="M387.5 262.5L337.5 262.5L262.5 337.5L262.5 412.5" stroke-width="4.17" stroke="rgba(223, 219, 229, 1)"></path>
            <path d="M381.25 262.5 a6.25 6.25 0 1 0 12.5 0 a6.25 6.25 0 1 0 -12.5 0zM256.25 412.5 a6.25 6.25 0 1 0 12.5 0 a6.25 6.25 0 1 0 -12.5 0z" fill="rgba(223, 219, 229, 1)"></path>
            <path d="M1862.5 37.5L1812.5 87.5" stroke-width="4.17" stroke="rgba(223, 219, 229, 1)"></path>
            <path d="M1856.25 37.5 a6.25 6.25 0 1 0 12.5 0 a6.25 6.25 0 1 0 -12.5 0zM1806.25 87.5 a6.25 6.25 0 1 0 12.5 0 a6.25 6.25 0 1 0 -12.5 0z" fill="rgba(223, 219, 229, 1)"></path>
            <path d="M1912.5 362.5L1912.5 437.5" stroke-width="4.17" stroke="rgba(223, 219, 229, 1)"></path>
            <path d="M1906.25 362.5 a6.25 6.25 0 1 0 12.5 0 a6.25 6.25 0 1 0 -12.5 0zM1906.25 437.5 a6.25 6.25 0 1 0 12.5 0 a6.25 6.25 0 1 0 -12.5 0z" fill="rgba(223, 219, 229, 1)"></path>
            <path d="M287.5 562.5L287.5 487.5L312.5 462.5" stroke-width="4.17" stroke="rgba(223, 219, 229, 1)"></path>
            <path d="M281.25 562.5 a6.25 6.25 0 1 0 12.5 0 a6.25 6.25 0 1 0 -12.5 0zM306.25 462.5 a6.25 6.25 0 1 0 12.5 0 a6.25 6.25 0 1 0 -12.5 0z" fill="rgba(223, 219, 229, 1)"></path>
            <path d="M87.5 337.5L87.5 287.5L62.5 262.5" stroke-width="4.17" stroke="rgba(223, 219, 229, 1)"></path>
            <path d="M81.25 337.5 a6.25 6.25 0 1 0 12.5 0 a6.25 6.25 0 1 0 -12.5 0zM56.25 262.5 a6.25 6.25 0 1 0 12.5 0 a6.25 6.25 0 1 0 -12.5 0z" fill="rgba(223, 219, 229, 1)"></path>
            <path d="M1037.5 162.5L1012.5 162.5L962.5 212.5" stroke-width="4.17" stroke="rgba(223, 219, 229, 1)"></path>
            <path d="M1031.25 162.5 a6.25 6.25 0 1 0 12.5 0 a6.25 6.25 0 1 0 -12.5 0zM956.25 212.5 a6.25 6.25 0 1 0 12.5 0 a6.25 6.25 0 1 0 -12.5 0z" fill="rgba(223, 219, 229, 1)"></path>
            <path d="M1862.5 12.5L1812.5 62.5L1787.5 62.5" stroke-width="4.17" stroke="rgba(223, 219, 229, 1)"></path>
            <path d="M1856.25 12.5 a6.25 6.25 0 1 0 12.5 0 a6.25 6.25 0 1 0 -12.5 0zM1781.25 62.5 a6.25 6.25 0 1 0 12.5 0 a6.25 6.25 0 1 0 -12.5 0z" fill="rgba(223, 219, 229, 1)"></path>
            <path d="M1187.5 137.5L1087.5 137.5L1062.5 162.5L1062.5 187.5L1087.5 212.5" stroke-width="4.17" stroke="rgba(223, 219, 229, 1)"></path>
            <path d="M1181.25 137.5 a6.25 6.25 0 1 0 12.5 0 a6.25 6.25 0 1 0 -12.5 0zM1081.25 212.5 a6.25 6.25 0 1 0 12.5 0 a6.25 6.25 0 1 0 -12.5 0z" fill="rgba(223, 219, 229, 1)"></path>
            <path d="M762.5 462.5L812.5 512.5" stroke-width="4.17" stroke="rgba(223, 219, 229, 1)"></path>
            <path d="M756.25 462.5 a6.25 6.25 0 1 0 12.5 0 a6.25 6.25 0 1 0 -12.5 0zM806.25 512.5 a6.25 6.25 0 1 0 12.5 0 a6.25 6.25 0 1 0 -12.5 0z" fill="rgba(223, 219, 229, 1)"></path>
            <path d="M462.5 212.5L462.5 187.5L487.5 162.5" stroke-width="4.17" stroke="rgba(223, 219, 229, 1)"></path>
            <path d="M456.25 212.5 a6.25 6.25 0 1 0 12.5 0 a6.25 6.25 0 1 0 -12.5 0zM481.25 162.5 a6.25 6.25 0 1 0 12.5 0 a6.25 6.25 0 1 0 -12.5 0z" fill="rgba(223, 219, 229, 1)"></path>
            <path d="M1512.5 412.5L1487.5 412.5L1462.5 437.5" stroke-width="4.17" stroke="rgba(223, 219, 229, 1)"></path>
            <path d="M1506.25 412.5 a6.25 6.25 0 1 0 12.5 0 a6.25 6.25 0 1 0 -12.5 0zM1456.25 437.5 a6.25 6.25 0 1 0 12.5 0 a6.25 6.25 0 1 0 -12.5 0z" fill="rgba(223, 219, 229, 1)"></path>
            <path d="M1437.5 212.5L1437.5 262.5L1387.5 312.5L1362.5 312.5" stroke-width="4.17" stroke="rgba(223, 219, 229, 1)"></path>
            <path d="M1431.25 212.5 a6.25 6.25 0 1 0 12.5 0 a6.25 6.25 0 1 0 -12.5 0zM1356.25 312.5 a6.25 6.25 0 1 0 12.5 0 a6.25 6.25 0 1 0 -12.5 0z" fill="rgba(223, 219, 229, 1)"></path>
            <path d="M137.5 112.5L162.5 112.5L187.5 87.5L187.5 12.5" stroke-width="4.17" stroke="rgba(223, 219, 229, 1)"></path>
            <path d="M131.25 112.5 a6.25 6.25 0 1 0 12.5 0 a6.25 6.25 0 1 0 -12.5 0zM181.25 12.5 a6.25 6.25 0 1 0 12.5 0 a6.25 6.25 0 1 0 -12.5 0z" fill="rgba(223, 219, 229, 1)"></path>
            <path d="M1112.5 162.5L1162.5 162.5" stroke-width="4.17" stroke="rgba(223, 219, 229, 1)"></path>
            <path d="M1106.25 162.5 a6.25 6.25 0 1 0 12.5 0 a6.25 6.25 0 1 0 -12.5 0zM1156.25 162.5 a6.25 6.25 0 1 0 12.5 0 a6.25 6.25 0 1 0 -12.5 0z" fill="rgba(223, 219, 229, 1)"></path>
            <path d="M112.5 87.5L62.5 37.5L37.5 37.5" stroke-width="4.17" stroke="rgba(223, 219, 229, 1)"></path>
            <path d="M106.25 87.5 a6.25 6.25 0 1 0 12.5 0 a6.25 6.25 0 1 0 -12.5 0zM31.25 37.5 a6.25 6.25 0 1 0 12.5 0 a6.25 6.25 0 1 0 -12.5 0z" fill="rgba(223, 219, 229, 1)"></path>
            <path d="M937.5 387.5L887.5 337.5" stroke-width="4.17" stroke="rgba(223, 219, 229, 1)"></path>
            <path d="M931.25 387.5 a6.25 6.25 0 1 0 12.5 0 a6.25 6.25 0 1 0 -12.5 0zM881.25 337.5 a6.25 6.25 0 1 0 12.5 0 a6.25 6.25 0 1 0 -12.5 0z" fill="rgba(223, 219, 229, 1)"></path>
            <path d="M437.5 112.5L437.5 162.5" stroke-width="4.17" stroke="rgba(223, 219, 229, 1)"></path>
            <path d="M431.25 112.5 a6.25 6.25 0 1 0 12.5 0 a6.25 6.25 0 1 0 -12.5 0zM431.25 162.5 a6.25 6.25 0 1 0 12.5 0 a6.25 6.25 0 1 0 -12.5 0z" fill="rgba(223, 219, 229, 1)"></path>
            <path d="M312.5 312.5L337.5 287.5L412.5 287.5L437.5 262.5" stroke-width="4.17" stroke="rgba(223, 219, 229, 1)"></path>
            <path d="M306.25 312.5 a6.25 6.25 0 1 0 12.5 0 a6.25 6.25 0 1 0 -12.5 0zM431.25 262.5 a6.25 6.25 0 1 0 12.5 0 a6.25 6.25 0 1 0 -12.5 0z" fill="rgba(223, 219, 229, 1)"></path>
            <path d="M287.5 337.5L362.5 337.5L387.5 312.5" stroke-width="4.17" stroke="rgba(223, 219, 229, 1)"></path>
            <path d="M281.25 337.5 a6.25 6.25 0 1 0 12.5 0 a6.25 6.25 0 1 0 -12.5 0zM381.25 312.5 a6.25 6.25 0 1 0 12.5 0 a6.25 6.25 0 1 0 -12.5 0z" fill="rgba(223, 219, 229, 1)"></path>
            <path d="M1737.5 137.5L1737.5 62.5" stroke-width="4.17" stroke="rgba(223, 219, 229, 1)"></path>
            <path d="M1731.25 137.5 a6.25 6.25 0 1 0 12.5 0 a6.25 6.25 0 1 0 -12.5 0zM1731.25 62.5 a6.25 6.25 0 1 0 12.5 0 a6.25 6.25 0 1 0 -12.5 0z" fill="rgba(223, 219, 229, 1)"></path>
            <path d="M87.5 87.5L137.5 137.5" stroke-width="4.17" stroke="rgba(223, 219, 229, 1)"></path>
            <path d="M81.25 87.5 a6.25 6.25 0 1 0 12.5 0 a6.25 6.25 0 1 0 -12.5 0zM131.25 137.5 a6.25 6.25 0 1 0 12.5 0 a6.25 6.25 0 1 0 -12.5 0z" fill="rgba(223, 219, 229, 1)"></path>
            <path d="M1337.5 212.5L1362.5 187.5L1362.5 162.5" stroke-width="4.17" stroke="rgba(223, 219, 229, 1)"></path>
            <path d="M1331.25 212.5 a6.25 6.25 0 1 0 12.5 0 a6.25 6.25 0 1 0 -12.5 0zM1356.25 162.5 a6.25 6.25 0 1 0 12.5 0 a6.25 6.25 0 1 0 -12.5 0z" fill="rgba(223, 219, 229, 1)"></path>
            <path d="M1912.5 162.5L1912.5 212.5" stroke-width="4.17" stroke="rgba(223, 219, 229, 1)"></path>
            <path d="M1906.25 162.5 a6.25 6.25 0 1 0 12.5 0 a6.25 6.25 0 1 0 -12.5 0zM1906.25 212.5 a6.25 6.25 0 1 0 12.5 0 a6.25 6.25 0 1 0 -12.5 0z" fill="rgba(223, 219, 229, 1)"></path>
            <path d="M1812.5 562.5L1762.5 562.5" stroke-width="4.17" stroke="rgba(223, 219, 229, 1)"></path>
            <path d="M1806.25 562.5 a6.25 6.25 0 1 0 12.5 0 a6.25 6.25 0 1 0 -12.5 0zM1756.25 562.5 a6.25 6.25 0 1 0 12.5 0 a6.25 6.25 0 1 0 -12.5 0z" fill="rgba(223, 219, 229, 1)"></path>
            <path d="M862.5 87.5L937.5 87.5" stroke-width="4.17" stroke="rgba(223, 219, 229, 1)"></path>
            <path d="M856.25 87.5 a6.25 6.25 0 1 0 12.5 0 a6.25 6.25 0 1 0 -12.5 0zM931.25 87.5 a6.25 6.25 0 1 0 12.5 0 a6.25 6.25 0 1 0 -12.5 0z" fill="rgba(223, 219, 229, 1)"></path>
            <path d="M887.5 62.5L837.5 62.5" stroke-width="4.17" stroke="rgba(223, 219, 229, 1)"></path>
            <path d="M881.25 62.5 a6.25 6.25 0 1 0 12.5 0 a6.25 6.25 0 1 0 -12.5 0zM831.25 62.5 a6.25 6.25 0 1 0 12.5 0 a6.25 6.25 0 1 0 -12.5 0z" fill="rgba(223, 219, 229, 1)"></path>
            <path d="M762.5 287.5L762.5 262.5L787.5 237.5" stroke-width="4.17" stroke="rgba(223, 219, 229, 1)"></path>
            <path d="M756.25 287.5 a6.25 6.25 0 1 0 12.5 0 a6.25 6.25 0 1 0 -12.5 0zM781.25 237.5 a6.25 6.25 0 1 0 12.5 0 a6.25 6.25 0 1 0 -12.5 0z" fill="rgba(223, 219, 229, 1)"></path>
        </g>
    </g>
    <defs>
        <mask id="SvgjsMask1456">
            <rect width="1903" height="572" fill="#ffffff"></rect>
        </mask>
        <linearGradient x1="50%" y1="0%" x2="50%" y2="100%" gradientUnits="userSpaceOnUse" id="SvgjsLinearGradient1457">
            <stop stop-color="rgba(223, 219, 229, 1)" offset="0"></stop>
            <stop stop-color="rgba(248, 249, 250, 1)" offset="1"></stop>
        </linearGradient>
        <mask id="SvgjsMask1458">
            <rect width="1903" height="572" fill="white"></rect>
            <path d="M1509.37 137.5 a3.13 3.13 0 1 0 6.26 0 a3.13 3.13 0 1 0 -6.26 0zM1109.37 487.5 a3.13 3.13 0 1 0 6.26 0 a3.13 3.13 0 1 0 -6.26 0z" fill="black"></path>
            <path d="M1684.37 487.5 a3.13 3.13 0 1 0 6.26 0 a3.13 3.13 0 1 0 -6.26 0zM1459.37 287.5 a3.13 3.13 0 1 0 6.26 0 a3.13 3.13 0 1 0 -6.26 0z" fill="black"></path>
            <path d="M434.37 87.5 a3.13 3.13 0 1 0 6.26 0 a3.13 3.13 0 1 0 -6.26 0zM209.37 562.5 a3.13 3.13 0 1 0 6.26 0 a3.13 3.13 0 1 0 -6.26 0z" fill="black"></path>
            <path d="M1009.37 112.5 a3.13 3.13 0 1 0 6.26 0 a3.13 3.13 0 1 0 -6.26 0zM534.37 487.5 a3.13 3.13 0 1 0 6.26 0 a3.13 3.13 0 1 0 -6.26 0z" fill="black"></path>
            <path d="M1009.37 337.5 a3.13 3.13 0 1 0 6.26 0 a3.13 3.13 0 1 0 -6.26 0zM1484.37 62.5 a3.13 3.13 0 1 0 6.26 0 a3.13 3.13 0 1 0 -6.26 0z" fill="black"></path>
            <path d="M209.37 287.5 a3.13 3.13 0 1 0 6.26 0 a3.13 3.13 0 1 0 -6.26 0zM434.37 12.5 a3.13 3.13 0 1 0 6.26 0 a3.13 3.13 0 1 0 -6.26 0z" fill="black"></path>
            <path d="M734.37 487.5 a3.13 3.13 0 1 0 6.26 0 a3.13 3.13 0 1 0 -6.26 0zM1109.37 212.5 a3.13 3.13 0 1 0 6.26 0 a3.13 3.13 0 1 0 -6.26 0z" fill="black"></path>
            <path d="M509.37 87.5 a3.13 3.13 0 1 0 6.26 0 a3.13 3.13 0 1 0 -6.26 0zM984.37 12.5 a3.13 3.13 0 1 0 6.26 0 a3.13 3.13 0 1 0 -6.26 0z" fill="black"></path>
            <path d="M1284.37 512.5 a3.13 3.13 0 1 0 6.26 0 a3.13 3.13 0 1 0 -6.26 0zM809.37 562.5 a3.13 3.13 0 1 0 6.26 0 a3.13 3.13 0 1 0 -6.26 0z" fill="black"></path>
            <path d="M959.37 37.5 a3.13 3.13 0 1 0 6.26 0 a3.13 3.13 0 1 0 -6.26 0zM484.37 362.5 a3.13 3.13 0 1 0 6.26 0 a3.13 3.13 0 1 0 -6.26 0z" fill="black"></path>
            <path d="M709.37 312.5 a3.13 3.13 0 1 0 6.26 0 a3.13 3.13 0 1 0 -6.26 0zM1009.37 12.5 a3.13 3.13 0 1 0 6.26 0 a3.13 3.13 0 1 0 -6.26 0z" fill="black"></path>
            <path d="M484.37 137.5 a3.13 3.13 0 1 0 6.26 0 a3.13 3.13 0 1 0 -6.26 0zM234.37 537.5 a3.13 3.13 0 1 0 6.26 0 a3.13 3.13 0 1 0 -6.26 0z" fill="black"></path>
            <path d="M684.37 62.5 a3.13 3.13 0 1 0 6.26 0 a3.13 3.13 0 1 0 -6.26 0zM459.37 12.5 a3.13 3.13 0 1 0 6.26 0 a3.13 3.13 0 1 0 -6.26 0z" fill="black"></path>
            <path d="M409.37 337.5 a3.13 3.13 0 1 0 6.26 0 a3.13 3.13 0 1 0 -6.26 0zM609.37 112.5 a3.13 3.13 0 1 0 6.26 0 a3.13 3.13 0 1 0 -6.26 0z" fill="black"></path>
            <path d="M209.37 62.5 a3.13 3.13 0 1 0 6.26 0 a3.13 3.13 0 1 0 -6.26 0zM209.37 12.5 a3.13 3.13 0 1 0 6.26 0 a3.13 3.13 0 1 0 -6.26 0z" fill="black"></path>
            <path d="M84.37 162.5 a3.13 3.13 0 1 0 6.26 0 a3.13 3.13 0 1 0 -6.26 0zM184.37 562.5 a3.13 3.13 0 1 0 6.26 0 a3.13 3.13 0 1 0 -6.26 0z" fill="black"></path>
            <path d="M1634.37 137.5 a3.13 3.13 0 1 0 6.26 0 a3.13 3.13 0 1 0 -6.26 0zM1734.37 337.5 a3.13 3.13 0 1 0 6.26 0 a3.13 3.13 0 1 0 -6.26 0z" fill="black"></path>
            <path d="M1384.37 537.5 a3.13 3.13 0 1 0 6.26 0 a3.13 3.13 0 1 0 -6.26 0zM909.37 537.5 a3.13 3.13 0 1 0 6.26 0 a3.13 3.13 0 1 0 -6.26 0z" fill="black"></path>
            <path d="M1484.37 562.5 a3.13 3.13 0 1 0 6.26 0 a3.13 3.13 0 1 0 -6.26 0zM1384.37 562.5 a3.13 3.13 0 1 0 6.26 0 a3.13 3.13 0 1 0 -6.26 0z" fill="black"></path>
            <path d="M1209.37 362.5 a3.13 3.13 0 1 0 6.26 0 a3.13 3.13 0 1 0 -6.26 0zM1109.37 262.5 a3.13 3.13 0 1 0 6.26 0 a3.13 3.13 0 1 0 -6.26 0z" fill="black"></path>
            <path d="M959.37 87.5 a3.13 3.13 0 1 0 6.26 0 a3.13 3.13 0 1 0 -6.26 0zM484.37 387.5 a3.13 3.13 0 1 0 6.26 0 a3.13 3.13 0 1 0 -6.26 0z" fill="black"></path>
            <path d="M1809.37 462.5 a3.13 3.13 0 1 0 6.26 0 a3.13 3.13 0 1 0 -6.26 0zM1909.37 562.5 a3.13 3.13 0 1 0 6.26 0 a3.13 3.13 0 1 0 -6.26 0z" fill="black"></path>
            <path d="M1734.37 462.5 a3.13 3.13 0 1 0 6.26 0 a3.13 3.13 0 1 0 -6.26 0zM1509.37 162.5 a3.13 3.13 0 1 0 6.26 0 a3.13 3.13 0 1 0 -6.26 0z" fill="black"></path>
            <path d="M1059.37 112.5 a3.13 3.13 0 1 0 6.26 0 a3.13 3.13 0 1 0 -6.26 0zM1309.37 12.5 a3.13 3.13 0 1 0 6.26 0 a3.13 3.13 0 1 0 -6.26 0z" fill="black"></path>
            <path d="M1909.37 37.5 a3.13 3.13 0 1 0 6.26 0 a3.13 3.13 0 1 0 -6.26 0zM1684.37 262.5 a3.13 3.13 0 1 0 6.26 0 a3.13 3.13 0 1 0 -6.26 0z" fill="black"></path>
            <path d="M1834.37 137.5 a3.13 3.13 0 1 0 6.26 0 a3.13 3.13 0 1 0 -6.26 0zM1909.37 537.5 a3.13 3.13 0 1 0 6.26 0 a3.13 3.13 0 1 0 -6.26 0z" fill="black"></path>
            <path d="M1434.37 62.5 a3.13 3.13 0 1 0 6.26 0 a3.13 3.13 0 1 0 -6.26 0zM1359.37 337.5 a3.13 3.13 0 1 0 6.26 0 a3.13 3.13 0 1 0 -6.26 0z" fill="black"></path>
            <path d="M109.37 562.5 a3.13 3.13 0 1 0 6.26 0 a3.13 3.13 0 1 0 -6.26 0zM159.37 562.5 a3.13 3.13 0 1 0 6.26 0 a3.13 3.13 0 1 0 -6.26 0z" fill="black"></path>
            <path d="M1709.37 162.5 a3.13 3.13 0 1 0 6.26 0 a3.13 3.13 0 1 0 -6.26 0zM1584.37 12.5 a3.13 3.13 0 1 0 6.26 0 a3.13 3.13 0 1 0 -6.26 0z" fill="black"></path>
            <path d="M1609.37 262.5 a3.13 3.13 0 1 0 6.26 0 a3.13 3.13 0 1 0 -6.26 0zM1534.37 162.5 a3.13 3.13 0 1 0 6.26 0 a3.13 3.13 0 1 0 -6.26 0z" fill="black"></path>
            <path d="M309.37 537.5 a3.13 3.13 0 1 0 6.26 0 a3.13 3.13 0 1 0 -6.26 0zM784.37 562.5 a3.13 3.13 0 1 0 6.26 0 a3.13 3.13 0 1 0 -6.26 0z" fill="black"></path>
            <path d="M1534.37 37.5 a3.13 3.13 0 1 0 6.26 0 a3.13 3.13 0 1 0 -6.26 0zM1909.37 12.5 a3.13 3.13 0 1 0 6.26 0 a3.13 3.13 0 1 0 -6.26 0z" fill="black"></path>
            <path d="M1409.37 512.5 a3.13 3.13 0 1 0 6.26 0 a3.13 3.13 0 1 0 -6.26 0zM1334.37 412.5 a3.13 3.13 0 1 0 6.26 0 a3.13 3.13 0 1 0 -6.26 0z" fill="black"></path>
            <path d="M1834.37 362.5 a3.13 3.13 0 1 0 6.26 0 a3.13 3.13 0 1 0 -6.26 0zM1909.37 62.5 a3.13 3.13 0 1 0 6.26 0 a3.13 3.13 0 1 0 -6.26 0z" fill="black"></path>
            <path d="M684.37 37.5 a3.13 3.13 0 1 0 6.26 0 a3.13 3.13 0 1 0 -6.26 0zM784.37 12.5 a3.13 3.13 0 1 0 6.26 0 a3.13 3.13 0 1 0 -6.26 0z" fill="black"></path>
            <path d="M1759.37 387.5 a3.13 3.13 0 1 0 6.26 0 a3.13 3.13 0 1 0 -6.26 0zM1584.37 287.5 a3.13 3.13 0 1 0 6.26 0 a3.13 3.13 0 1 0 -6.26 0z" fill="black"></path>
            <path d="M559.37 37.5 a3.13 3.13 0 1 0 6.26 0 a3.13 3.13 0 1 0 -6.26 0zM459.37 62.5 a3.13 3.13 0 1 0 6.26 0 a3.13 3.13 0 1 0 -6.26 0z" fill="black"></path>
            <path d="M409.37 137.5 a3.13 3.13 0 1 0 6.26 0 a3.13 3.13 0 1 0 -6.26 0zM359.37 187.5 a3.13 3.13 0 1 0 6.26 0 a3.13 3.13 0 1 0 -6.26 0z" fill="black"></path>
            <path d="M1859.37 412.5 a3.13 3.13 0 1 0 6.26 0 a3.13 3.13 0 1 0 -6.26 0zM1909.37 312.5 a3.13 3.13 0 1 0 6.26 0 a3.13 3.13 0 1 0 -6.26 0z" fill="black"></path>
            <path d="M559.37 137.5 a3.13 3.13 0 1 0 6.26 0 a3.13 3.13 0 1 0 -6.26 0zM259.37 562.5 a3.13 3.13 0 1 0 6.26 0 a3.13 3.13 0 1 0 -6.26 0z" fill="black"></path>
            <path d="M1559.37 87.5 a3.13 3.13 0 1 0 6.26 0 a3.13 3.13 0 1 0 -6.26 0zM1709.37 187.5 a3.13 3.13 0 1 0 6.26 0 a3.13 3.13 0 1 0 -6.26 0z" fill="black"></path>
            <path d="M84.37 137.5 a3.13 3.13 0 1 0 6.26 0 a3.13 3.13 0 1 0 -6.26 0zM9.37 12.5 a3.13 3.13 0 1 0 6.26 0 a3.13 3.13 0 1 0 -6.26 0z" fill="black"></path>
            <path d="M1759.37 137.5 a3.13 3.13 0 1 0 6.26 0 a3.13 3.13 0 1 0 -6.26 0zM1759.37 12.5 a3.13 3.13 0 1 0 6.26 0 a3.13 3.13 0 1 0 -6.26 0z" fill="black"></path>
            <path d="M9.37 387.5 a3.13 3.13 0 1 0 6.26 0 a3.13 3.13 0 1 0 -6.26 0zM159.37 537.5 a3.13 3.13 0 1 0 6.26 0 a3.13 3.13 0 1 0 -6.26 0z" fill="black"></path>
            <path d="M334.37 62.5 a3.13 3.13 0 1 0 6.26 0 a3.13 3.13 0 1 0 -6.26 0zM109.37 437.5 a3.13 3.13 0 1 0 6.26 0 a3.13 3.13 0 1 0 -6.26 0z" fill="black"></path>
            <path d="M959.37 362.5 a3.13 3.13 0 1 0 6.26 0 a3.13 3.13 0 1 0 -6.26 0zM959.37 312.5 a3.13 3.13 0 1 0 6.26 0 a3.13 3.13 0 1 0 -6.26 0z" fill="black"></path>
            <path d="M184.37 312.5 a3.13 3.13 0 1 0 6.26 0 a3.13 3.13 0 1 0 -6.26 0zM134.37 187.5 a3.13 3.13 0 1 0 6.26 0 a3.13 3.13 0 1 0 -6.26 0z" fill="black"></path>
            <path d="M1209.37 412.5 a3.13 3.13 0 1 0 6.26 0 a3.13 3.13 0 1 0 -6.26 0zM1084.37 287.5 a3.13 3.13 0 1 0 6.26 0 a3.13 3.13 0 1 0 -6.26 0z" fill="black"></path>
            <path d="M1534.37 412.5 a3.13 3.13 0 1 0 6.26 0 a3.13 3.13 0 1 0 -6.26 0zM1559.37 487.5 a3.13 3.13 0 1 0 6.26 0 a3.13 3.13 0 1 0 -6.26 0z" fill="black"></path>
            <path d="M834.37 487.5 a3.13 3.13 0 1 0 6.26 0 a3.13 3.13 0 1 0 -6.26 0zM934.37 312.5 a3.13 3.13 0 1 0 6.26 0 a3.13 3.13 0 1 0 -6.26 0z" fill="black"></path>
            <path d="M1359.37 62.5 a3.13 3.13 0 1 0 6.26 0 a3.13 3.13 0 1 0 -6.26 0zM1284.37 87.5 a3.13 3.13 0 1 0 6.26 0 a3.13 3.13 0 1 0 -6.26 0z" fill="black"></path>
            <path d="M359.37 37.5 a3.13 3.13 0 1 0 6.26 0 a3.13 3.13 0 1 0 -6.26 0zM409.37 62.5 a3.13 3.13 0 1 0 6.26 0 a3.13 3.13 0 1 0 -6.26 0z" fill="black"></path>
            <path d="M634.37 337.5 a3.13 3.13 0 1 0 6.26 0 a3.13 3.13 0 1 0 -6.26 0zM309.37 437.5 a3.13 3.13 0 1 0 6.26 0 a3.13 3.13 0 1 0 -6.26 0z" fill="black"></path>
            <path d="M1659.37 312.5 a3.13 3.13 0 1 0 6.26 0 a3.13 3.13 0 1 0 -6.26 0zM1734.37 387.5 a3.13 3.13 0 1 0 6.26 0 a3.13 3.13 0 1 0 -6.26 0z" fill="black"></path>
            <path d="M1059.37 37.5 a3.13 3.13 0 1 0 6.26 0 a3.13 3.13 0 1 0 -6.26 0zM1009.37 87.5 a3.13 3.13 0 1 0 6.26 0 a3.13 3.13 0 1 0 -6.26 0z" fill="black"></path>
            <path d="M709.37 287.5 a3.13 3.13 0 1 0 6.26 0 a3.13 3.13 0 1 0 -6.26 0zM659.37 237.5 a3.13 3.13 0 1 0 6.26 0 a3.13 3.13 0 1 0 -6.26 0z" fill="black"></path>
            <path d="M484.37 112.5 a3.13 3.13 0 1 0 6.26 0 a3.13 3.13 0 1 0 -6.26 0zM534.37 162.5 a3.13 3.13 0 1 0 6.26 0 a3.13 3.13 0 1 0 -6.26 0z" fill="black"></path>
            <path d="M559.37 262.5 a3.13 3.13 0 1 0 6.26 0 a3.13 3.13 0 1 0 -6.26 0zM709.37 112.5 a3.13 3.13 0 1 0 6.26 0 a3.13 3.13 0 1 0 -6.26 0z" fill="black"></path>
            <path d="M834.37 337.5 a3.13 3.13 0 1 0 6.26 0 a3.13 3.13 0 1 0 -6.26 0zM784.37 412.5 a3.13 3.13 0 1 0 6.26 0 a3.13 3.13 0 1 0 -6.26 0z" fill="black"></path>
            <path d="M984.37 437.5 a3.13 3.13 0 1 0 6.26 0 a3.13 3.13 0 1 0 -6.26 0zM984.37 312.5 a3.13 3.13 0 1 0 6.26 0 a3.13 3.13 0 1 0 -6.26 0z" fill="black"></path>
            <path d="M1884.37 362.5 a3.13 3.13 0 1 0 6.26 0 a3.13 3.13 0 1 0 -6.26 0zM1909.37 462.5 a3.13 3.13 0 1 0 6.26 0 a3.13 3.13 0 1 0 -6.26 0z" fill="black"></path>
            <path d="M1384.37 162.5 a3.13 3.13 0 1 0 6.26 0 a3.13 3.13 0 1 0 -6.26 0zM1484.37 112.5 a3.13 3.13 0 1 0 6.26 0 a3.13 3.13 0 1 0 -6.26 0z" fill="black"></path>
            <path d="M284.37 387.5 a3.13 3.13 0 1 0 6.26 0 a3.13 3.13 0 1 0 -6.26 0zM259.37 437.5 a3.13 3.13 0 1 0 6.26 0 a3.13 3.13 0 1 0 -6.26 0z" fill="black"></path>
            <path d="M1159.37 437.5 a3.13 3.13 0 1 0 6.26 0 a3.13 3.13 0 1 0 -6.26 0zM1234.37 462.5 a3.13 3.13 0 1 0 6.26 0 a3.13 3.13 0 1 0 -6.26 0z" fill="black"></path>
            <path d="M584.37 62.5 a3.13 3.13 0 1 0 6.26 0 a3.13 3.13 0 1 0 -6.26 0zM659.37 62.5 a3.13 3.13 0 1 0 6.26 0 a3.13 3.13 0 1 0 -6.26 0z" fill="black"></path>
            <path d="M1059.37 437.5 a3.13 3.13 0 1 0 6.26 0 a3.13 3.13 0 1 0 -6.26 0zM809.37 437.5 a3.13 3.13 0 1 0 6.26 0 a3.13 3.13 0 1 0 -6.26 0z" fill="black"></path>
            <path d="M1159.37 62.5 a3.13 3.13 0 1 0 6.26 0 a3.13 3.13 0 1 0 -6.26 0zM1284.37 12.5 a3.13 3.13 0 1 0 6.26 0 a3.13 3.13 0 1 0 -6.26 0z" fill="black"></path>
            <path d="M634.37 412.5 a3.13 3.13 0 1 0 6.26 0 a3.13 3.13 0 1 0 -6.26 0zM484.37 537.5 a3.13 3.13 0 1 0 6.26 0 a3.13 3.13 0 1 0 -6.26 0z" fill="black"></path>
            <path d="M634.37 462.5 a3.13 3.13 0 1 0 6.26 0 a3.13 3.13 0 1 0 -6.26 0zM709.37 462.5 a3.13 3.13 0 1 0 6.26 0 a3.13 3.13 0 1 0 -6.26 0z" fill="black"></path>
            <path d="M1634.37 37.5 a3.13 3.13 0 1 0 6.26 0 a3.13 3.13 0 1 0 -6.26 0zM1684.37 187.5 a3.13 3.13 0 1 0 6.26 0 a3.13 3.13 0 1 0 -6.26 0z" fill="black"></path>
            <path d="M1859.37 562.5 a3.13 3.13 0 1 0 6.26 0 a3.13 3.13 0 1 0 -6.26 0zM1409.37 537.5 a3.13 3.13 0 1 0 6.26 0 a3.13 3.13 0 1 0 -6.26 0z" fill="black"></path>
            <path d="M734.37 287.5 a3.13 3.13 0 1 0 6.26 0 a3.13 3.13 0 1 0 -6.26 0zM734.37 187.5 a3.13 3.13 0 1 0 6.26 0 a3.13 3.13 0 1 0 -6.26 0z" fill="black"></path>
            <path d="M1034.37 187.5 a3.13 3.13 0 1 0 6.26 0 a3.13 3.13 0 1 0 -6.26 0zM884.37 262.5 a3.13 3.13 0 1 0 6.26 0 a3.13 3.13 0 1 0 -6.26 0z" fill="black"></path>
            <path d="M334.37 37.5 a3.13 3.13 0 1 0 6.26 0 a3.13 3.13 0 1 0 -6.26 0zM409.37 12.5 a3.13 3.13 0 1 0 6.26 0 a3.13 3.13 0 1 0 -6.26 0z" fill="black"></path>
            <path d="M1109.37 462.5 a3.13 3.13 0 1 0 6.26 0 a3.13 3.13 0 1 0 -6.26 0zM984.37 487.5 a3.13 3.13 0 1 0 6.26 0 a3.13 3.13 0 1 0 -6.26 0z" fill="black"></path>
            <path d="M1109.37 387.5 a3.13 3.13 0 1 0 6.26 0 a3.13 3.13 0 1 0 -6.26 0zM1184.37 412.5 a3.13 3.13 0 1 0 6.26 0 a3.13 3.13 0 1 0 -6.26 0z" fill="black"></path>
            <path d="M34.37 487.5 a3.13 3.13 0 1 0 6.26 0 a3.13 3.13 0 1 0 -6.26 0zM9.37 562.5 a3.13 3.13 0 1 0 6.26 0 a3.13 3.13 0 1 0 -6.26 0z" fill="black"></path>
            <path d="M459.37 412.5 a3.13 3.13 0 1 0 6.26 0 a3.13 3.13 0 1 0 -6.26 0zM659.37 362.5 a3.13 3.13 0 1 0 6.26 0 a3.13 3.13 0 1 0 -6.26 0z" fill="black"></path>
            <path d="M534.37 387.5 a3.13 3.13 0 1 0 6.26 0 a3.13 3.13 0 1 0 -6.26 0zM584.37 312.5 a3.13 3.13 0 1 0 6.26 0 a3.13 3.13 0 1 0 -6.26 0z" fill="black"></path>
            <path d="M1459.37 162.5 a3.13 3.13 0 1 0 6.26 0 a3.13 3.13 0 1 0 -6.26 0zM1359.37 137.5 a3.13 3.13 0 1 0 6.26 0 a3.13 3.13 0 1 0 -6.26 0z" fill="black"></path>
            <path d="M1434.37 462.5 a3.13 3.13 0 1 0 6.26 0 a3.13 3.13 0 1 0 -6.26 0zM1259.37 487.5 a3.13 3.13 0 1 0 6.26 0 a3.13 3.13 0 1 0 -6.26 0z" fill="black"></path>
            <path d="M1159.37 462.5 a3.13 3.13 0 1 0 6.26 0 a3.13 3.13 0 1 0 -6.26 0zM1209.37 462.5 a3.13 3.13 0 1 0 6.26 0 a3.13 3.13 0 1 0 -6.26 0z" fill="black"></path>
            <path d="M1459.37 237.5 a3.13 3.13 0 1 0 6.26 0 a3.13 3.13 0 1 0 -6.26 0zM1459.37 187.5 a3.13 3.13 0 1 0 6.26 0 a3.13 3.13 0 1 0 -6.26 0z" fill="black"></path>
            <path d="M1234.37 562.5 a3.13 3.13 0 1 0 6.26 0 a3.13 3.13 0 1 0 -6.26 0zM1059.37 562.5 a3.13 3.13 0 1 0 6.26 0 a3.13 3.13 0 1 0 -6.26 0z" fill="black"></path>
            <path d="M1159.37 287.5 a3.13 3.13 0 1 0 6.26 0 a3.13 3.13 0 1 0 -6.26 0zM1184.37 187.5 a3.13 3.13 0 1 0 6.26 0 a3.13 3.13 0 1 0 -6.26 0z" fill="black"></path>
            <path d="M1809.37 212.5 a3.13 3.13 0 1 0 6.26 0 a3.13 3.13 0 1 0 -6.26 0zM1809.37 362.5 a3.13 3.13 0 1 0 6.26 0 a3.13 3.13 0 1 0 -6.26 0z" fill="black"></path>
            <path d="M1859.37 487.5 a3.13 3.13 0 1 0 6.26 0 a3.13 3.13 0 1 0 -6.26 0zM1784.37 387.5 a3.13 3.13 0 1 0 6.26 0 a3.13 3.13 0 1 0 -6.26 0z" fill="black"></path>
            <path d="M834.37 512.5 a3.13 3.13 0 1 0 6.26 0 a3.13 3.13 0 1 0 -6.26 0zM534.37 537.5 a3.13 3.13 0 1 0 6.26 0 a3.13 3.13 0 1 0 -6.26 0z" fill="black"></path>
            <path d="M209.37 162.5 a3.13 3.13 0 1 0 6.26 0 a3.13 3.13 0 1 0 -6.26 0zM259.37 87.5 a3.13 3.13 0 1 0 6.26 0 a3.13 3.13 0 1 0 -6.26 0z" fill="black"></path>
            <path d="M484.37 312.5 a3.13 3.13 0 1 0 6.26 0 a3.13 3.13 0 1 0 -6.26 0zM334.37 437.5 a3.13 3.13 0 1 0 6.26 0 a3.13 3.13 0 1 0 -6.26 0z" fill="black"></path>
            <path d="M284.37 137.5 a3.13 3.13 0 1 0 6.26 0 a3.13 3.13 0 1 0 -6.26 0zM359.37 112.5 a3.13 3.13 0 1 0 6.26 0 a3.13 3.13 0 1 0 -6.26 0z" fill="black"></path>
            <path d="M259.37 137.5 a3.13 3.13 0 1 0 6.26 0 a3.13 3.13 0 1 0 -6.26 0zM209.37 262.5 a3.13 3.13 0 1 0 6.26 0 a3.13 3.13 0 1 0 -6.26 0z" fill="black"></path>
            <path d="M1809.37 287.5 a3.13 3.13 0 1 0 6.26 0 a3.13 3.13 0 1 0 -6.26 0zM1734.37 287.5 a3.13 3.13 0 1 0 6.26 0 a3.13 3.13 0 1 0 -6.26 0z" fill="black"></path>
            <path d="M109.37 387.5 a3.13 3.13 0 1 0 6.26 0 a3.13 3.13 0 1 0 -6.26 0zM159.37 487.5 a3.13 3.13 0 1 0 6.26 0 a3.13 3.13 0 1 0 -6.26 0z" fill="black"></path>
            <path d="M1434.37 487.5 a3.13 3.13 0 1 0 6.26 0 a3.13 3.13 0 1 0 -6.26 0zM1534.37 487.5 a3.13 3.13 0 1 0 6.26 0 a3.13 3.13 0 1 0 -6.26 0z" fill="black"></path>
            <path d="M1034.37 237.5 a3.13 3.13 0 1 0 6.26 0 a3.13 3.13 0 1 0 -6.26 0zM909.37 237.5 a3.13 3.13 0 1 0 6.26 0 a3.13 3.13 0 1 0 -6.26 0z" fill="black"></path>
            <path d="M1734.37 562.5 a3.13 3.13 0 1 0 6.26 0 a3.13 3.13 0 1 0 -6.26 0zM1559.37 562.5 a3.13 3.13 0 1 0 6.26 0 a3.13 3.13 0 1 0 -6.26 0z" fill="black"></path>
            <path d="M384.37 487.5 a3.13 3.13 0 1 0 6.26 0 a3.13 3.13 0 1 0 -6.26 0zM459.37 362.5 a3.13 3.13 0 1 0 6.26 0 a3.13 3.13 0 1 0 -6.26 0z" fill="black"></path>
            <path d="M1884.37 187.5 a3.13 3.13 0 1 0 6.26 0 a3.13 3.13 0 1 0 -6.26 0zM1909.37 237.5 a3.13 3.13 0 1 0 6.26 0 a3.13 3.13 0 1 0 -6.26 0z" fill="black"></path>
            <path d="M909.37 462.5 a3.13 3.13 0 1 0 6.26 0 a3.13 3.13 0 1 0 -6.26 0zM959.37 462.5 a3.13 3.13 0 1 0 6.26 0 a3.13 3.13 0 1 0 -6.26 0z" fill="black"></path>
            <path d="M84.37 512.5 a3.13 3.13 0 1 0 6.26 0 a3.13 3.13 0 1 0 -6.26 0zM134.37 537.5 a3.13 3.13 0 1 0 6.26 0 a3.13 3.13 0 1 0 -6.26 0z" fill="black"></path>
            <path d="M1259.37 212.5 a3.13 3.13 0 1 0 6.26 0 a3.13 3.13 0 1 0 -6.26 0zM1409.37 137.5 a3.13 3.13 0 1 0 6.26 0 a3.13 3.13 0 1 0 -6.26 0z" fill="black"></path>
            <path d="M1434.37 37.5 a3.13 3.13 0 1 0 6.26 0 a3.13 3.13 0 1 0 -6.26 0zM1359.37 87.5 a3.13 3.13 0 1 0 6.26 0 a3.13 3.13 0 1 0 -6.26 0z" fill="black"></path>
            <path d="M209.37 237.5 a3.13 3.13 0 1 0 6.26 0 a3.13 3.13 0 1 0 -6.26 0zM234.37 112.5 a3.13 3.13 0 1 0 6.26 0 a3.13 3.13 0 1 0 -6.26 0z" fill="black"></path>
            <path d="M559.37 237.5 a3.13 3.13 0 1 0 6.26 0 a3.13 3.13 0 1 0 -6.26 0zM684.37 112.5 a3.13 3.13 0 1 0 6.26 0 a3.13 3.13 0 1 0 -6.26 0z" fill="black"></path>
            <path d="M109.37 62.5 a3.13 3.13 0 1 0 6.26 0 a3.13 3.13 0 1 0 -6.26 0zM34.37 12.5 a3.13 3.13 0 1 0 6.26 0 a3.13 3.13 0 1 0 -6.26 0z" fill="black"></path>
            <path d="M1134.37 362.5 a3.13 3.13 0 1 0 6.26 0 a3.13 3.13 0 1 0 -6.26 0zM1009.37 412.5 a3.13 3.13 0 1 0 6.26 0 a3.13 3.13 0 1 0 -6.26 0z" fill="black"></path>
            <path d="M384.37 387.5 a3.13 3.13 0 1 0 6.26 0 a3.13 3.13 0 1 0 -6.26 0zM334.37 412.5 a3.13 3.13 0 1 0 6.26 0 a3.13 3.13 0 1 0 -6.26 0z" fill="black"></path>
            <path d="M1084.37 12.5 a3.13 3.13 0 1 0 6.26 0 a3.13 3.13 0 1 0 -6.26 0zM1184.37 12.5 a3.13 3.13 0 1 0 6.26 0 a3.13 3.13 0 1 0 -6.26 0z" fill="black"></path>
            <path d="M1284.37 387.5 a3.13 3.13 0 1 0 6.26 0 a3.13 3.13 0 1 0 -6.26 0zM1234.37 437.5 a3.13 3.13 0 1 0 6.26 0 a3.13 3.13 0 1 0 -6.26 0z" fill="black"></path>
            <path d="M334.37 12.5 a3.13 3.13 0 1 0 6.26 0 a3.13 3.13 0 1 0 -6.26 0zM234.37 12.5 a3.13 3.13 0 1 0 6.26 0 a3.13 3.13 0 1 0 -6.26 0z" fill="black"></path>
            <path d="M1109.37 112.5 a3.13 3.13 0 1 0 6.26 0 a3.13 3.13 0 1 0 -6.26 0zM934.37 212.5 a3.13 3.13 0 1 0 6.26 0 a3.13 3.13 0 1 0 -6.26 0z" fill="black"></path>
            <path d="M1759.37 237.5 a3.13 3.13 0 1 0 6.26 0 a3.13 3.13 0 1 0 -6.26 0zM1859.37 262.5 a3.13 3.13 0 1 0 6.26 0 a3.13 3.13 0 1 0 -6.26 0z" fill="black"></path>
            <path d="M59.37 137.5 a3.13 3.13 0 1 0 6.26 0 a3.13 3.13 0 1 0 -6.26 0zM9.37 137.5 a3.13 3.13 0 1 0 6.26 0 a3.13 3.13 0 1 0 -6.26 0z" fill="black"></path>
            <path d="M859.37 387.5 a3.13 3.13 0 1 0 6.26 0 a3.13 3.13 0 1 0 -6.26 0zM959.37 387.5 a3.13 3.13 0 1 0 6.26 0 a3.13 3.13 0 1 0 -6.26 0z" fill="black"></path>
            <path d="M459.37 137.5 a3.13 3.13 0 1 0 6.26 0 a3.13 3.13 0 1 0 -6.26 0zM459.37 87.5 a3.13 3.13 0 1 0 6.26 0 a3.13 3.13 0 1 0 -6.26 0z" fill="black"></path>
            <path d="M1284.37 362.5 a3.13 3.13 0 1 0 6.26 0 a3.13 3.13 0 1 0 -6.26 0zM1184.37 262.5 a3.13 3.13 0 1 0 6.26 0 a3.13 3.13 0 1 0 -6.26 0z" fill="black"></path>
            <path d="M709.37 537.5 a3.13 3.13 0 1 0 6.26 0 a3.13 3.13 0 1 0 -6.26 0zM759.37 537.5 a3.13 3.13 0 1 0 6.26 0 a3.13 3.13 0 1 0 -6.26 0z" fill="black"></path>
            <path d="M1059.37 362.5 a3.13 3.13 0 1 0 6.26 0 a3.13 3.13 0 1 0 -6.26 0zM1134.37 462.5 a3.13 3.13 0 1 0 6.26 0 a3.13 3.13 0 1 0 -6.26 0z" fill="black"></path>
            <path d="M1484.37 462.5 a3.13 3.13 0 1 0 6.26 0 a3.13 3.13 0 1 0 -6.26 0zM1384.37 387.5 a3.13 3.13 0 1 0 6.26 0 a3.13 3.13 0 1 0 -6.26 0z" fill="black"></path>
            <path d="M809.37 212.5 a3.13 3.13 0 1 0 6.26 0 a3.13 3.13 0 1 0 -6.26 0zM759.37 187.5 a3.13 3.13 0 1 0 6.26 0 a3.13 3.13 0 1 0 -6.26 0z" fill="black"></path>
            <path d="M1034.37 112.5 a3.13 3.13 0 1 0 6.26 0 a3.13 3.13 0 1 0 -6.26 0zM1134.37 37.5 a3.13 3.13 0 1 0 6.26 0 a3.13 3.13 0 1 0 -6.26 0z" fill="black"></path>
            <path d="M59.37 562.5 a3.13 3.13 0 1 0 6.26 0 a3.13 3.13 0 1 0 -6.26 0zM9.37 412.5 a3.13 3.13 0 1 0 6.26 0 a3.13 3.13 0 1 0 -6.26 0z" fill="black"></path>
            <path d="M184.37 162.5 a3.13 3.13 0 1 0 6.26 0 a3.13 3.13 0 1 0 -6.26 0zM209.37 212.5 a3.13 3.13 0 1 0 6.26 0 a3.13 3.13 0 1 0 -6.26 0z" fill="black"></path>
            <path d="M359.37 237.5 a3.13 3.13 0 1 0 6.26 0 a3.13 3.13 0 1 0 -6.26 0zM509.37 162.5 a3.13 3.13 0 1 0 6.26 0 a3.13 3.13 0 1 0 -6.26 0z" fill="black"></path>
            <path d="M334.37 487.5 a3.13 3.13 0 1 0 6.26 0 a3.13 3.13 0 1 0 -6.26 0zM384.37 537.5 a3.13 3.13 0 1 0 6.26 0 a3.13 3.13 0 1 0 -6.26 0z" fill="black"></path>
            <path d="M809.37 137.5 a3.13 3.13 0 1 0 6.26 0 a3.13 3.13 0 1 0 -6.26 0zM809.37 87.5 a3.13 3.13 0 1 0 6.26 0 a3.13 3.13 0 1 0 -6.26 0z" fill="black"></path>
            <path d="M1334.37 312.5 a3.13 3.13 0 1 0 6.26 0 a3.13 3.13 0 1 0 -6.26 0zM1284.37 312.5 a3.13 3.13 0 1 0 6.26 0 a3.13 3.13 0 1 0 -6.26 0z" fill="black"></path>
            <path d="M134.37 387.5 a3.13 3.13 0 1 0 6.26 0 a3.13 3.13 0 1 0 -6.26 0zM134.37 237.5 a3.13 3.13 0 1 0 6.26 0 a3.13 3.13 0 1 0 -6.26 0z" fill="black"></path>
            <path d="M434.37 412.5 a3.13 3.13 0 1 0 6.26 0 a3.13 3.13 0 1 0 -6.26 0zM509.37 462.5 a3.13 3.13 0 1 0 6.26 0 a3.13 3.13 0 1 0 -6.26 0z" fill="black"></path>
            <path d="M1859.37 287.5 a3.13 3.13 0 1 0 6.26 0 a3.13 3.13 0 1 0 -6.26 0zM1759.37 312.5 a3.13 3.13 0 1 0 6.26 0 a3.13 3.13 0 1 0 -6.26 0z" fill="black"></path>
            <path d="M1084.37 437.5 a3.13 3.13 0 1 0 6.26 0 a3.13 3.13 0 1 0 -6.26 0zM1034.37 362.5 a3.13 3.13 0 1 0 6.26 0 a3.13 3.13 0 1 0 -6.26 0z" fill="black"></path>
            <path d="M1309.37 237.5 a3.13 3.13 0 1 0 6.26 0 a3.13 3.13 0 1 0 -6.26 0zM1309.37 162.5 a3.13 3.13 0 1 0 6.26 0 a3.13 3.13 0 1 0 -6.26 0z" fill="black"></path>
            <path d="M1459.37 412.5 a3.13 3.13 0 1 0 6.26 0 a3.13 3.13 0 1 0 -6.26 0zM1434.37 337.5 a3.13 3.13 0 1 0 6.26 0 a3.13 3.13 0 1 0 -6.26 0z" fill="black"></path>
            <path d="M1484.37 287.5 a3.13 3.13 0 1 0 6.26 0 a3.13 3.13 0 1 0 -6.26 0zM1609.37 387.5 a3.13 3.13 0 1 0 6.26 0 a3.13 3.13 0 1 0 -6.26 0z" fill="black"></path>
            <path d="M1559.37 187.5 a3.13 3.13 0 1 0 6.26 0 a3.13 3.13 0 1 0 -6.26 0zM1609.37 237.5 a3.13 3.13 0 1 0 6.26 0 a3.13 3.13 0 1 0 -6.26 0z" fill="black"></path>
            <path d="M1259.37 412.5 a3.13 3.13 0 1 0 6.26 0 a3.13 3.13 0 1 0 -6.26 0zM1184.37 287.5 a3.13 3.13 0 1 0 6.26 0 a3.13 3.13 0 1 0 -6.26 0z" fill="black"></path>
            <path d="M1834.37 562.5 a3.13 3.13 0 1 0 6.26 0 a3.13 3.13 0 1 0 -6.26 0zM1734.37 537.5 a3.13 3.13 0 1 0 6.26 0 a3.13 3.13 0 1 0 -6.26 0z" fill="black"></path>
            <path d="M1234.37 37.5 a3.13 3.13 0 1 0 6.26 0 a3.13 3.13 0 1 0 -6.26 0zM1184.37 62.5 a3.13 3.13 0 1 0 6.26 0 a3.13 3.13 0 1 0 -6.26 0z" fill="black"></path>
            <path d="M184.37 437.5 a3.13 3.13 0 1 0 6.26 0 a3.13 3.13 0 1 0 -6.26 0zM184.37 337.5 a3.13 3.13 0 1 0 6.26 0 a3.13 3.13 0 1 0 -6.26 0z" fill="black"></path>
            <path d="M259.37 312.5 a3.13 3.13 0 1 0 6.26 0 a3.13 3.13 0 1 0 -6.26 0zM334.37 237.5 a3.13 3.13 0 1 0 6.26 0 a3.13 3.13 0 1 0 -6.26 0z" fill="black"></path>
            <path d="M384.37 262.5 a3.13 3.13 0 1 0 6.26 0 a3.13 3.13 0 1 0 -6.26 0zM259.37 412.5 a3.13 3.13 0 1 0 6.26 0 a3.13 3.13 0 1 0 -6.26 0z" fill="black"></path>
            <path d="M1859.37 37.5 a3.13 3.13 0 1 0 6.26 0 a3.13 3.13 0 1 0 -6.26 0zM1809.37 87.5 a3.13 3.13 0 1 0 6.26 0 a3.13 3.13 0 1 0 -6.26 0z" fill="black"></path>
            <path d="M1909.37 362.5 a3.13 3.13 0 1 0 6.26 0 a3.13 3.13 0 1 0 -6.26 0zM1909.37 437.5 a3.13 3.13 0 1 0 6.26 0 a3.13 3.13 0 1 0 -6.26 0z" fill="black"></path>
            <path d="M284.37 562.5 a3.13 3.13 0 1 0 6.26 0 a3.13 3.13 0 1 0 -6.26 0zM309.37 462.5 a3.13 3.13 0 1 0 6.26 0 a3.13 3.13 0 1 0 -6.26 0z" fill="black"></path>
            <path d="M84.37 337.5 a3.13 3.13 0 1 0 6.26 0 a3.13 3.13 0 1 0 -6.26 0zM59.37 262.5 a3.13 3.13 0 1 0 6.26 0 a3.13 3.13 0 1 0 -6.26 0z" fill="black"></path>
            <path d="M1034.37 162.5 a3.13 3.13 0 1 0 6.26 0 a3.13 3.13 0 1 0 -6.26 0zM959.37 212.5 a3.13 3.13 0 1 0 6.26 0 a3.13 3.13 0 1 0 -6.26 0z" fill="black"></path>
            <path d="M1859.37 12.5 a3.13 3.13 0 1 0 6.26 0 a3.13 3.13 0 1 0 -6.26 0zM1784.37 62.5 a3.13 3.13 0 1 0 6.26 0 a3.13 3.13 0 1 0 -6.26 0z" fill="black"></path>
            <path d="M1184.37 137.5 a3.13 3.13 0 1 0 6.26 0 a3.13 3.13 0 1 0 -6.26 0zM1084.37 212.5 a3.13 3.13 0 1 0 6.26 0 a3.13 3.13 0 1 0 -6.26 0z" fill="black"></path>
            <path d="M759.37 462.5 a3.13 3.13 0 1 0 6.26 0 a3.13 3.13 0 1 0 -6.26 0zM809.37 512.5 a3.13 3.13 0 1 0 6.26 0 a3.13 3.13 0 1 0 -6.26 0z" fill="black"></path>
            <path d="M459.37 212.5 a3.13 3.13 0 1 0 6.26 0 a3.13 3.13 0 1 0 -6.26 0zM484.37 162.5 a3.13 3.13 0 1 0 6.26 0 a3.13 3.13 0 1 0 -6.26 0z" fill="black"></path>
            <path d="M1509.37 412.5 a3.13 3.13 0 1 0 6.26 0 a3.13 3.13 0 1 0 -6.26 0zM1459.37 437.5 a3.13 3.13 0 1 0 6.26 0 a3.13 3.13 0 1 0 -6.26 0z" fill="black"></path>
            <path d="M1434.37 212.5 a3.13 3.13 0 1 0 6.26 0 a3.13 3.13 0 1 0 -6.26 0zM1359.37 312.5 a3.13 3.13 0 1 0 6.26 0 a3.13 3.13 0 1 0 -6.26 0z" fill="black"></path>
            <path d="M134.37 112.5 a3.13 3.13 0 1 0 6.26 0 a3.13 3.13 0 1 0 -6.26 0zM184.37 12.5 a3.13 3.13 0 1 0 6.26 0 a3.13 3.13 0 1 0 -6.26 0z" fill="black"></path>
            <path d="M1109.37 162.5 a3.13 3.13 0 1 0 6.26 0 a3.13 3.13 0 1 0 -6.26 0zM1159.37 162.5 a3.13 3.13 0 1 0 6.26 0 a3.13 3.13 0 1 0 -6.26 0z" fill="black"></path>
            <path d="M109.37 87.5 a3.13 3.13 0 1 0 6.26 0 a3.13 3.13 0 1 0 -6.26 0zM34.37 37.5 a3.13 3.13 0 1 0 6.26 0 a3.13 3.13 0 1 0 -6.26 0z" fill="black"></path>
            <path d="M934.37 387.5 a3.13 3.13 0 1 0 6.26 0 a3.13 3.13 0 1 0 -6.26 0zM884.37 337.5 a3.13 3.13 0 1 0 6.26 0 a3.13 3.13 0 1 0 -6.26 0z" fill="black"></path>
            <path d="M434.37 112.5 a3.13 3.13 0 1 0 6.26 0 a3.13 3.13 0 1 0 -6.26 0zM434.37 162.5 a3.13 3.13 0 1 0 6.26 0 a3.13 3.13 0 1 0 -6.26 0z" fill="black"></path>
            <path d="M309.37 312.5 a3.13 3.13 0 1 0 6.26 0 a3.13 3.13 0 1 0 -6.26 0zM434.37 262.5 a3.13 3.13 0 1 0 6.26 0 a3.13 3.13 0 1 0 -6.26 0z" fill="black"></path>
            <path d="M284.37 337.5 a3.13 3.13 0 1 0 6.26 0 a3.13 3.13 0 1 0 -6.26 0zM384.37 312.5 a3.13 3.13 0 1 0 6.26 0 a3.13 3.13 0 1 0 -6.26 0z" fill="black"></path>
            <path d="M1734.37 137.5 a3.13 3.13 0 1 0 6.26 0 a3.13 3.13 0 1 0 -6.26 0zM1734.37 62.5 a3.13 3.13 0 1 0 6.26 0 a3.13 3.13 0 1 0 -6.26 0z" fill="black"></path>
            <path d="M84.37 87.5 a3.13 3.13 0 1 0 6.26 0 a3.13 3.13 0 1 0 -6.26 0zM134.37 137.5 a3.13 3.13 0 1 0 6.26 0 a3.13 3.13 0 1 0 -6.26 0z" fill="black"></path>
            <path d="M1334.37 212.5 a3.13 3.13 0 1 0 6.26 0 a3.13 3.13 0 1 0 -6.26 0zM1359.37 162.5 a3.13 3.13 0 1 0 6.26 0 a3.13 3.13 0 1 0 -6.26 0z" fill="black"></path>
            <path d="M1909.37 162.5 a3.13 3.13 0 1 0 6.26 0 a3.13 3.13 0 1 0 -6.26 0zM1909.37 212.5 a3.13 3.13 0 1 0 6.26 0 a3.13 3.13 0 1 0 -6.26 0z" fill="black"></path>
            <path d="M1809.37 562.5 a3.13 3.13 0 1 0 6.26 0 a3.13 3.13 0 1 0 -6.26 0zM1759.37 562.5 a3.13 3.13 0 1 0 6.26 0 a3.13 3.13 0 1 0 -6.26 0z" fill="black"></path>
            <path d="M859.37 87.5 a3.13 3.13 0 1 0 6.26 0 a3.13 3.13 0 1 0 -6.26 0zM934.37 87.5 a3.13 3.13 0 1 0 6.26 0 a3.13 3.13 0 1 0 -6.26 0z" fill="black"></path>
            <path d="M884.37 62.5 a3.13 3.13 0 1 0 6.26 0 a3.13 3.13 0 1 0 -6.26 0zM834.37 62.5 a3.13 3.13 0 1 0 6.26 0 a3.13 3.13 0 1 0 -6.26 0z" fill="black"></path>
            <path d="M759.37 287.5 a3.13 3.13 0 1 0 6.26 0 a3.13 3.13 0 1 0 -6.26 0zM784.37 237.5 a3.13 3.13 0 1 0 6.26 0 a3.13 3.13 0 1 0 -6.26 0z" fill="black"></path>
        </mask>
    </defs>
</svg>