<svg xmlns="http://www.w3.org/2000/svg" version="1.1" xmlns:xlink="http://www.w3.org/1999/xlink" xmlns:svgjs="http://svgjs.dev/svgjs" width="1903" height="572" preserveAspectRatio="none" viewBox="0 0 1903 572">
    <g mask="url(&quot;#SvgjsMask1048&quot;)" fill="none">
        <rect width="1903" height="572" x="0" y="0" fill="url(&quot;#SvgjsLinearGradient1049&quot;)"></rect>
        <path d="M-59.75 376.03L-59.75 376.03" stroke="rgba(223, 219, 229, 1)" stroke-width="1.5"></path>
        <path d="M-59.75 376.03L81.88 379.21" stroke="rgba(223, 219, 229, 1)" stroke-width="1.5"></path>
        <path d="M-59.75 376.03L-102.26 518.72" stroke="rgba(223, 219, 229, 1)" stroke-width="1.5"></path>
        <path d="M-59.75 376.03L94.76 504.24" stroke="rgba(223, 219, 229, 1)" stroke-width="1.5"></path>
        <path d="M-102.26 518.72L-102.26 518.72" stroke="rgba(223, 219, 229, 1)" stroke-width="1.5"></path>
        <path d="M-102.26 518.72L-84.25 676.32" stroke="rgba(223, 219, 229, 1)" stroke-width="1.5"></path>
        <path d="M-102.26 518.72L94.76 504.24" stroke="rgba(223, 219, 229, 1)" stroke-width="1.5"></path>
        <path d="M-102.26 518.72L81.88 379.21" stroke="rgba(223, 219, 229, 1)" stroke-width="1.5"></path>
        <path d="M-102.26 518.72L66.5 699.08" stroke="rgba(223, 219, 229, 1)" stroke-width="1.5"></path>
        <path d="M-84.25 676.32L-84.25 676.32" stroke="rgba(223, 219, 229, 1)" stroke-width="1.5"></path>
        <path d="M-84.25 676.32L66.5 699.08" stroke="rgba(223, 219, 229, 1)" stroke-width="1.5"></path>
        <path d="M-84.25 676.32L94.76 504.24" stroke="rgba(223, 219, 229, 1)" stroke-width="1.5"></path>
        <path d="M-84.25 676.32L202.59 678.34" stroke="rgba(223, 219, 229, 1)" stroke-width="1.5"></path>
        <path d="M-84.25 676.32L-59.75 376.03" stroke="rgba(223, 219, 229, 1)" stroke-width="1.5"></path>
        <path d="M81.88 379.21L81.88 379.21" stroke="rgba(223, 219, 229, 1)" stroke-width="1.5"></path>
        <path d="M81.88 379.21L94.76 504.24" stroke="rgba(223, 219, 229, 1)" stroke-width="1.5"></path>
        <path d="M81.88 379.21L260.48 405.28" stroke="rgba(223, 219, 229, 1)" stroke-width="1.5"></path>
        <path d="M94.76 504.24L94.76 504.24" stroke="rgba(223, 219, 229, 1)" stroke-width="1.5"></path>
        <path d="M94.76 504.24L260.48 405.28" stroke="rgba(223, 219, 229, 1)" stroke-width="1.5"></path>
        <path d="M94.76 504.24L66.5 699.08" stroke="rgba(223, 219, 229, 1)" stroke-width="1.5"></path>
        <path d="M66.5 699.08L66.5 699.08" stroke="rgba(223, 219, 229, 1)" stroke-width="1.5"></path>
        <path d="M66.5 699.08L202.59 678.34" stroke="rgba(223, 219, 229, 1)" stroke-width="1.5"></path>
        <path d="M260.48 405.28L260.48 405.28" stroke="rgba(223, 219, 229, 1)" stroke-width="1.5"></path>
        <path d="M260.48 405.28L348.64 384.86" stroke="rgba(223, 219, 229, 1)" stroke-width="1.5"></path>
        <path d="M260.48 405.28L410.66 532.32" stroke="rgba(223, 219, 229, 1)" stroke-width="1.5"></path>
        <path d="M202.59 678.34L202.59 678.34" stroke="rgba(223, 219, 229, 1)" stroke-width="1.5"></path>
        <path d="M202.59 678.34L383.22 655.63" stroke="rgba(223, 219, 229, 1)" stroke-width="1.5"></path>
        <path d="M202.59 678.34L94.76 504.24" stroke="rgba(223, 219, 229, 1)" stroke-width="1.5"></path>
        <path d="M348.64 384.86L348.64 384.86" stroke="rgba(223, 219, 229, 1)" stroke-width="1.5"></path>
        <path d="M348.64 384.86L410.66 532.32" stroke="rgba(223, 219, 229, 1)" stroke-width="1.5"></path>
        <path d="M410.66 532.32L410.66 532.32" stroke="rgba(223, 219, 229, 1)" stroke-width="1.5"></path>
        <path d="M410.66 532.32L505.59 537.67" stroke="rgba(223, 219, 229, 1)" stroke-width="1.5"></path>
        <path d="M410.66 532.32L383.22 655.63" stroke="rgba(223, 219, 229, 1)" stroke-width="1.5"></path>
        <path d="M383.22 655.63L383.22 655.63" stroke="rgba(223, 219, 229, 1)" stroke-width="1.5"></path>
        <path d="M383.22 655.63L505.59 537.67" stroke="rgba(223, 219, 229, 1)" stroke-width="1.5"></path>
        <path d="M505.59 537.67L505.59 537.67" stroke="rgba(223, 219, 229, 1)" stroke-width="1.5"></path>
        <path d="M505.59 537.67L650.79 386.02" stroke="rgba(223, 219, 229, 1)" stroke-width="1.5"></path>
        <path d="M505.59 537.67L348.64 384.86" stroke="rgba(223, 219, 229, 1)" stroke-width="1.5"></path>
        <path d="M505.59 537.67L679.18 699.07" stroke="rgba(223, 219, 229, 1)" stroke-width="1.5"></path>
        <path d="M505.59 537.67L260.48 405.28" stroke="rgba(223, 219, 229, 1)" stroke-width="1.5"></path>
        <path d="M650.79 386.02L650.79 386.02" stroke="rgba(223, 219, 229, 1)" stroke-width="1.5"></path>
        <path d="M650.79 386.02L802.98 398.05" stroke="rgba(223, 219, 229, 1)" stroke-width="1.5"></path>
        <path d="M650.79 386.02L816.12 553.72" stroke="rgba(223, 219, 229, 1)" stroke-width="1.5"></path>
        <path d="M650.79 386.02L410.66 532.32" stroke="rgba(223, 219, 229, 1)" stroke-width="1.5"></path>
        <path d="M650.79 386.02L348.64 384.86" stroke="rgba(223, 219, 229, 1)" stroke-width="1.5"></path>
        <path d="M679.18 699.07L679.18 699.07" stroke="rgba(223, 219, 229, 1)" stroke-width="1.5"></path>
        <path d="M679.18 699.07L810.32 669.27" stroke="rgba(223, 219, 229, 1)" stroke-width="1.5"></path>
        <path d="M679.18 699.07L816.12 553.72" stroke="rgba(223, 219, 229, 1)" stroke-width="1.5"></path>
        <path d="M679.18 699.07L952.09 684.88" stroke="rgba(223, 219, 229, 1)" stroke-width="1.5"></path>
        <path d="M679.18 699.07L383.22 655.63" stroke="rgba(223, 219, 229, 1)" stroke-width="1.5"></path>
        <path d="M802.98 398.05L802.98 398.05" stroke="rgba(223, 219, 229, 1)" stroke-width="1.5"></path>
        <path d="M802.98 398.05L816.12 553.72" stroke="rgba(223, 219, 229, 1)" stroke-width="1.5"></path>
        <path d="M816.12 553.72L816.12 553.72" stroke="rgba(223, 219, 229, 1)" stroke-width="1.5"></path>
        <path d="M816.12 553.72L810.32 669.27" stroke="rgba(223, 219, 229, 1)" stroke-width="1.5"></path>
        <path d="M816.12 553.72L970.49 508.57" stroke="rgba(223, 219, 229, 1)" stroke-width="1.5"></path>
        <path d="M816.12 553.72L952.09 684.88" stroke="rgba(223, 219, 229, 1)" stroke-width="1.5"></path>
        <path d="M810.32 669.27L810.32 669.27" stroke="rgba(223, 219, 229, 1)" stroke-width="1.5"></path>
        <path d="M810.32 669.27L952.09 684.88" stroke="rgba(223, 219, 229, 1)" stroke-width="1.5"></path>
        <path d="M810.32 669.27L970.49 508.57" stroke="rgba(223, 219, 229, 1)" stroke-width="1.5"></path>
        <path d="M981.6 205.52L981.6 205.52" stroke="rgba(223, 219, 229, 1)" stroke-width="1.5"></path>
        <path d="M981.6 205.52L1119.51 203.21" stroke="rgba(223, 219, 229, 1)" stroke-width="1.5"></path>
        <path d="M981.6 205.52L999.01 361.75" stroke="rgba(223, 219, 229, 1)" stroke-width="1.5"></path>
        <path d="M999.01 361.75L999.01 361.75" stroke="rgba(223, 219, 229, 1)" stroke-width="1.5"></path>
        <path d="M999.01 361.75L1133.54 340.79" stroke="rgba(223, 219, 229, 1)" stroke-width="1.5"></path>
        <path d="M999.01 361.75L970.49 508.57" stroke="rgba(223, 219, 229, 1)" stroke-width="1.5"></path>
        <path d="M999.01 361.75L1119.51 203.21" stroke="rgba(223, 219, 229, 1)" stroke-width="1.5"></path>
        <path d="M970.49 508.57L970.49 508.57" stroke="rgba(223, 219, 229, 1)" stroke-width="1.5"></path>
        <path d="M970.49 508.57L1110.75 529.44" stroke="rgba(223, 219, 229, 1)" stroke-width="1.5"></path>
        <path d="M970.49 508.57L952.09 684.88" stroke="rgba(223, 219, 229, 1)" stroke-width="1.5"></path>
        <path d="M970.49 508.57L802.98 398.05" stroke="rgba(223, 219, 229, 1)" stroke-width="1.5"></path>
        <path d="M952.09 684.88L952.09 684.88" stroke="rgba(223, 219, 229, 1)" stroke-width="1.5"></path>
        <path d="M952.09 684.88L1110.75 529.44" stroke="rgba(223, 219, 229, 1)" stroke-width="1.5"></path>
        <path d="M952.09 684.88L1242.1 697.44" stroke="rgba(223, 219, 229, 1)" stroke-width="1.5"></path>
        <path d="M1108.77 108.38L1108.77 108.38" stroke="rgba(223, 219, 229, 1)" stroke-width="1.5"></path>
        <path d="M1108.77 108.38L1119.51 203.21" stroke="rgba(223, 219, 229, 1)" stroke-width="1.5"></path>
        <path d="M1108.77 108.38L1258.98 61.09" stroke="rgba(223, 219, 229, 1)" stroke-width="1.5"></path>
        <path d="M1108.77 108.38L981.6 205.52" stroke="rgba(223, 219, 229, 1)" stroke-width="1.5"></path>
        <path d="M1108.77 108.38L1133.54 340.79" stroke="rgba(223, 219, 229, 1)" stroke-width="1.5"></path>
        <path d="M1119.51 203.21L1119.51 203.21" stroke="rgba(223, 219, 229, 1)" stroke-width="1.5"></path>
        <path d="M1119.51 203.21L1133.54 340.79" stroke="rgba(223, 219, 229, 1)" stroke-width="1.5"></path>
        <path d="M1119.51 203.21L1258.98 61.09" stroke="rgba(223, 219, 229, 1)" stroke-width="1.5"></path>
        <path d="M1133.54 340.79L1133.54 340.79" stroke="rgba(223, 219, 229, 1)" stroke-width="1.5"></path>
        <path d="M1133.54 340.79L1306.12 408.07" stroke="rgba(223, 219, 229, 1)" stroke-width="1.5"></path>
        <path d="M1110.75 529.44L1110.75 529.44" stroke="rgba(223, 219, 229, 1)" stroke-width="1.5"></path>
        <path d="M1110.75 529.44L1275.27 527.59" stroke="rgba(223, 219, 229, 1)" stroke-width="1.5"></path>
        <path d="M1110.75 529.44L1133.54 340.79" stroke="rgba(223, 219, 229, 1)" stroke-width="1.5"></path>
        <path d="M1110.75 529.44L999.01 361.75" stroke="rgba(223, 219, 229, 1)" stroke-width="1.5"></path>
        <path d="M1294.58 -76.88L1294.58 -76.88" stroke="rgba(223, 219, 229, 1)" stroke-width="1.5"></path>
        <path d="M1294.58 -76.88L1406.97 -89.12" stroke="rgba(223, 219, 229, 1)" stroke-width="1.5"></path>
        <path d="M1294.58 -76.88L1258.98 61.09" stroke="rgba(223, 219, 229, 1)" stroke-width="1.5"></path>
        <path d="M1258.98 61.09L1258.98 61.09" stroke="rgba(223, 219, 229, 1)" stroke-width="1.5"></path>
        <path d="M1258.98 61.09L1406.92 86.98" stroke="rgba(223, 219, 229, 1)" stroke-width="1.5"></path>
        <path d="M1258.98 61.09L1406.97 -89.12" stroke="rgba(223, 219, 229, 1)" stroke-width="1.5"></path>
        <path d="M1258.98 61.09L1133.54 340.79" stroke="rgba(223, 219, 229, 1)" stroke-width="1.5"></path>
        <path d="M1306.12 408.07L1306.12 408.07" stroke="rgba(223, 219, 229, 1)" stroke-width="1.5"></path>
        <path d="M1306.12 408.07L1397.02 385.49" stroke="rgba(223, 219, 229, 1)" stroke-width="1.5"></path>
        <path d="M1306.12 408.07L1275.27 527.59" stroke="rgba(223, 219, 229, 1)" stroke-width="1.5"></path>
        <path d="M1275.27 527.59L1275.27 527.59" stroke="rgba(223, 219, 229, 1)" stroke-width="1.5"></path>
        <path d="M1275.27 527.59L1242.1 697.44" stroke="rgba(223, 219, 229, 1)" stroke-width="1.5"></path>
        <path d="M1242.1 697.44L1242.1 697.44" stroke="rgba(223, 219, 229, 1)" stroke-width="1.5"></path>
        <path d="M1242.1 697.44L1110.75 529.44" stroke="rgba(223, 219, 229, 1)" stroke-width="1.5"></path>
        <path d="M1406.97 -89.12L1406.97 -89.12" stroke="rgba(223, 219, 229, 1)" stroke-width="1.5"></path>
        <path d="M1406.97 -89.12L1406.92 86.98" stroke="rgba(223, 219, 229, 1)" stroke-width="1.5"></path>
        <path d="M1406.97 -89.12L1572.96 103.63" stroke="rgba(223, 219, 229, 1)" stroke-width="1.5"></path>
        <path d="M1406.97 -89.12L1746.62 -83.46" stroke="rgba(223, 219, 229, 1)" stroke-width="1.5"></path>
        <path d="M1406.97 -89.12L1549.95 221.68" stroke="rgba(223, 219, 229, 1)" stroke-width="1.5"></path>
        <path d="M1406.92 86.98L1406.92 86.98" stroke="rgba(223, 219, 229, 1)" stroke-width="1.5"></path>
        <path d="M1406.92 86.98L1572.96 103.63" stroke="rgba(223, 219, 229, 1)" stroke-width="1.5"></path>
        <path d="M1406.92 86.98L1549.95 221.68" stroke="rgba(223, 219, 229, 1)" stroke-width="1.5"></path>
        <path d="M1406.92 86.98L1294.58 -76.88" stroke="rgba(223, 219, 229, 1)" stroke-width="1.5"></path>
        <path d="M1397.02 385.49L1397.02 385.49" stroke="rgba(223, 219, 229, 1)" stroke-width="1.5"></path>
        <path d="M1397.02 385.49L1455.36 561.13" stroke="rgba(223, 219, 229, 1)" stroke-width="1.5"></path>
        <path d="M1397.02 385.49L1275.27 527.59" stroke="rgba(223, 219, 229, 1)" stroke-width="1.5"></path>
        <path d="M1397.02 385.49L1605.87 376.5" stroke="rgba(223, 219, 229, 1)" stroke-width="1.5"></path>
        <path d="M1397.02 385.49L1560.86 534.1" stroke="rgba(223, 219, 229, 1)" stroke-width="1.5"></path>
        <path d="M1397.02 385.49L1549.95 221.68" stroke="rgba(223, 219, 229, 1)" stroke-width="1.5"></path>
        <path d="M1455.36 561.13L1455.36 561.13" stroke="rgba(223, 219, 229, 1)" stroke-width="1.5"></path>
        <path d="M1455.36 561.13L1560.86 534.1" stroke="rgba(223, 219, 229, 1)" stroke-width="1.5"></path>
        <path d="M1572.96 103.63L1572.96 103.63" stroke="rgba(223, 219, 229, 1)" stroke-width="1.5"></path>
        <path d="M1572.96 103.63L1549.95 221.68" stroke="rgba(223, 219, 229, 1)" stroke-width="1.5"></path>
        <path d="M1572.96 103.63L1730.48 71.06" stroke="rgba(223, 219, 229, 1)" stroke-width="1.5"></path>
        <path d="M1572.96 103.63L1748.73 201.37" stroke="rgba(223, 219, 229, 1)" stroke-width="1.5"></path>
        <path d="M1572.96 103.63L1746.62 -83.46" stroke="rgba(223, 219, 229, 1)" stroke-width="1.5"></path>
        <path d="M1549.95 221.68L1549.95 221.68" stroke="rgba(223, 219, 229, 1)" stroke-width="1.5"></path>
        <path d="M1549.95 221.68L1605.87 376.5" stroke="rgba(223, 219, 229, 1)" stroke-width="1.5"></path>
        <path d="M1549.95 221.68L1748.73 201.37" stroke="rgba(223, 219, 229, 1)" stroke-width="1.5"></path>
        <path d="M1549.95 221.68L1687.51 381.13" stroke="rgba(223, 219, 229, 1)" stroke-width="1.5"></path>
        <path d="M1605.87 376.5L1605.87 376.5" stroke="rgba(223, 219, 229, 1)" stroke-width="1.5"></path>
        <path d="M1605.87 376.5L1687.51 381.13" stroke="rgba(223, 219, 229, 1)" stroke-width="1.5"></path>
        <path d="M1605.87 376.5L1560.86 534.1" stroke="rgba(223, 219, 229, 1)" stroke-width="1.5"></path>
        <path d="M1605.87 376.5L1748.73 201.37" stroke="rgba(223, 219, 229, 1)" stroke-width="1.5"></path>
        <path d="M1605.87 376.5L1455.36 561.13" stroke="rgba(223, 219, 229, 1)" stroke-width="1.5"></path>
        <path d="M1560.86 534.1L1560.86 534.1" stroke="rgba(223, 219, 229, 1)" stroke-width="1.5"></path>
        <path d="M1560.86 534.1L1687.51 381.13" stroke="rgba(223, 219, 229, 1)" stroke-width="1.5"></path>
        <path d="M1560.86 534.1L1718.62 681.05" stroke="rgba(223, 219, 229, 1)" stroke-width="1.5"></path>
        <path d="M1746.62 -83.46L1746.62 -83.46" stroke="rgba(223, 219, 229, 1)" stroke-width="1.5"></path>
        <path d="M1746.62 -83.46L1868.86 -78.1" stroke="rgba(223, 219, 229, 1)" stroke-width="1.5"></path>
        <path d="M1746.62 -83.46L1730.48 71.06" stroke="rgba(223, 219, 229, 1)" stroke-width="1.5"></path>
        <path d="M1746.62 -83.46L1856.42 93.66" stroke="rgba(223, 219, 229, 1)" stroke-width="1.5"></path>
        <path d="M1730.48 71.06L1730.48 71.06" stroke="rgba(223, 219, 229, 1)" stroke-width="1.5"></path>
        <path d="M1730.48 71.06L1856.42 93.66" stroke="rgba(223, 219, 229, 1)" stroke-width="1.5"></path>
        <path d="M1730.48 71.06L1748.73 201.37" stroke="rgba(223, 219, 229, 1)" stroke-width="1.5"></path>
        <path d="M1730.48 71.06L1870.12 218.38" stroke="rgba(223, 219, 229, 1)" stroke-width="1.5"></path>
        <path d="M1730.48 71.06L1868.86 -78.1" stroke="rgba(223, 219, 229, 1)" stroke-width="1.5"></path>
        <path d="M1748.73 201.37L1748.73 201.37" stroke="rgba(223, 219, 229, 1)" stroke-width="1.5"></path>
        <path d="M1748.73 201.37L1870.12 218.38" stroke="rgba(223, 219, 229, 1)" stroke-width="1.5"></path>
        <path d="M1748.73 201.37L1856.42 93.66" stroke="rgba(223, 219, 229, 1)" stroke-width="1.5"></path>
        <path d="M1748.73 201.37L1864.18 341.64" stroke="rgba(223, 219, 229, 1)" stroke-width="1.5"></path>
        <path d="M1687.51 381.13L1687.51 381.13" stroke="rgba(223, 219, 229, 1)" stroke-width="1.5"></path>
        <path d="M1687.51 381.13L1864.18 341.64" stroke="rgba(223, 219, 229, 1)" stroke-width="1.5"></path>
        <path d="M1687.51 381.13L1748.73 201.37" stroke="rgba(223, 219, 229, 1)" stroke-width="1.5"></path>
        <path d="M1718.62 681.05L1718.62 681.05" stroke="rgba(223, 219, 229, 1)" stroke-width="1.5"></path>
        <path d="M1718.62 681.05L1882.67 660.63" stroke="rgba(223, 219, 229, 1)" stroke-width="1.5"></path>
        <path d="M1718.62 681.05L1863.56 518.57" stroke="rgba(223, 219, 229, 1)" stroke-width="1.5"></path>
        <path d="M1718.62 681.05L1996.92 646.78" stroke="rgba(223, 219, 229, 1)" stroke-width="1.5"></path>
        <path d="M1718.62 681.05L1455.36 561.13" stroke="rgba(223, 219, 229, 1)" stroke-width="1.5"></path>
        <path d="M1868.86 -78.1L1868.86 -78.1" stroke="rgba(223, 219, 229, 1)" stroke-width="1.5"></path>
        <path d="M1868.86 -78.1L1856.42 93.66" stroke="rgba(223, 219, 229, 1)" stroke-width="1.5"></path>
        <path d="M1868.86 -78.1L2057.15 -61.63" stroke="rgba(223, 219, 229, 1)" stroke-width="1.5"></path>
        <path d="M1868.86 -78.1L2020.82 84.17" stroke="rgba(223, 219, 229, 1)" stroke-width="1.5"></path>
        <path d="M1868.86 -78.1L1870.12 218.38" stroke="rgba(223, 219, 229, 1)" stroke-width="1.5"></path>
        <path d="M1856.42 93.66L1856.42 93.66" stroke="rgba(223, 219, 229, 1)" stroke-width="1.5"></path>
        <path d="M1856.42 93.66L1870.12 218.38" stroke="rgba(223, 219, 229, 1)" stroke-width="1.5"></path>
        <path d="M1870.12 218.38L1870.12 218.38" stroke="rgba(223, 219, 229, 1)" stroke-width="1.5"></path>
        <path d="M1870.12 218.38L1864.18 341.64" stroke="rgba(223, 219, 229, 1)" stroke-width="1.5"></path>
        <path d="M1870.12 218.38L2027.26 205.09" stroke="rgba(223, 219, 229, 1)" stroke-width="1.5"></path>
        <path d="M1870.12 218.38L2020.82 84.17" stroke="rgba(223, 219, 229, 1)" stroke-width="1.5"></path>
        <path d="M1864.18 341.64L1864.18 341.64" stroke="rgba(223, 219, 229, 1)" stroke-width="1.5"></path>
        <path d="M1864.18 341.64L2032.12 363.83" stroke="rgba(223, 219, 229, 1)" stroke-width="1.5"></path>
        <path d="M1864.18 341.64L1863.56 518.57" stroke="rgba(223, 219, 229, 1)" stroke-width="1.5"></path>
        <path d="M1863.56 518.57L1863.56 518.57" stroke="rgba(223, 219, 229, 1)" stroke-width="1.5"></path>
        <path d="M1863.56 518.57L1990.24 545.51" stroke="rgba(223, 219, 229, 1)" stroke-width="1.5"></path>
        <path d="M1863.56 518.57L1882.67 660.63" stroke="rgba(223, 219, 229, 1)" stroke-width="1.5"></path>
        <path d="M1863.56 518.57L1996.92 646.78" stroke="rgba(223, 219, 229, 1)" stroke-width="1.5"></path>
        <path d="M1882.67 660.63L1882.67 660.63" stroke="rgba(223, 219, 229, 1)" stroke-width="1.5"></path>
        <path d="M1882.67 660.63L1996.92 646.78" stroke="rgba(223, 219, 229, 1)" stroke-width="1.5"></path>
        <path d="M2057.15 -61.63L2057.15 -61.63" stroke="rgba(223, 219, 229, 1)" stroke-width="1.5"></path>
        <path d="M2057.15 -61.63L2020.82 84.17" stroke="rgba(223, 219, 229, 1)" stroke-width="1.5"></path>
        <path d="M2020.82 84.17L2020.82 84.17" stroke="rgba(223, 219, 229, 1)" stroke-width="1.5"></path>
        <path d="M2020.82 84.17L2027.26 205.09" stroke="rgba(223, 219, 229, 1)" stroke-width="1.5"></path>
        <path d="M2020.82 84.17L1856.42 93.66" stroke="rgba(223, 219, 229, 1)" stroke-width="1.5"></path>
        <path d="M2020.82 84.17L2032.12 363.83" stroke="rgba(223, 219, 229, 1)" stroke-width="1.5"></path>
        <path d="M2027.26 205.09L2027.26 205.09" stroke="rgba(223, 219, 229, 1)" stroke-width="1.5"></path>
        <path d="M2027.26 205.09L2032.12 363.83" stroke="rgba(223, 219, 229, 1)" stroke-width="1.5"></path>
        <path d="M2027.26 205.09L1856.42 93.66" stroke="rgba(223, 219, 229, 1)" stroke-width="1.5"></path>
        <path d="M2027.26 205.09L1864.18 341.64" stroke="rgba(223, 219, 229, 1)" stroke-width="1.5"></path>
        <path d="M2032.12 363.83L2032.12 363.83" stroke="rgba(223, 219, 229, 1)" stroke-width="1.5"></path>
        <path d="M2032.12 363.83L1990.24 545.51" stroke="rgba(223, 219, 229, 1)" stroke-width="1.5"></path>
        <path d="M2032.12 363.83L1870.12 218.38" stroke="rgba(223, 219, 229, 1)" stroke-width="1.5"></path>
        <path d="M2032.12 363.83L1863.56 518.57" stroke="rgba(223, 219, 229, 1)" stroke-width="1.5"></path>
        <path d="M1990.24 545.51L1990.24 545.51" stroke="rgba(223, 219, 229, 1)" stroke-width="1.5"></path>
        <path d="M1990.24 545.51L1996.92 646.78" stroke="rgba(223, 219, 229, 1)" stroke-width="1.5"></path>
        <path d="M1996.92 646.78L1996.92 646.78" stroke="rgba(223, 219, 229, 1)" stroke-width="1.5"></path>
        <circle r="5" cx="-59.75" cy="376.03" fill="rgba(223, 219, 229, 1)"></circle>
        <circle r="5" cx="-102.26" cy="518.72" fill="rgba(223, 219, 229, 1)"></circle>
        <circle r="5" cx="-84.25" cy="676.32" fill="rgba(223, 219, 229, 1)"></circle>
        <circle r="5" cx="81.88" cy="379.21" fill="rgba(223, 219, 229, 1)"></circle>
        <circle r="5" cx="94.76" cy="504.24" fill="rgba(223, 219, 229, 1)"></circle>
        <circle r="5" cx="66.5" cy="699.08" fill="rgba(223, 219, 229, 1)"></circle>
        <circle r="5" cx="260.48" cy="405.28" fill="rgba(223, 219, 229, 1)"></circle>
        <circle r="5" cx="202.59" cy="678.34" fill="rgba(223, 219, 229, 1)"></circle>
        <circle r="5" cx="348.64" cy="384.86" fill="rgba(223, 219, 229, 1)"></circle>
        <circle r="5" cx="410.66" cy="532.32" fill="rgba(223, 219, 229, 1)"></circle>
        <circle r="5" cx="383.22" cy="655.63" fill="rgba(223, 219, 229, 1)"></circle>
        <circle r="5" cx="505.59" cy="537.67" fill="rgba(223, 219, 229, 1)"></circle>
        <circle r="5" cx="650.79" cy="386.02" fill="rgba(223, 219, 229, 1)"></circle>
        <circle r="5" cx="679.18" cy="699.07" fill="rgba(223, 219, 229, 1)"></circle>
        <circle r="5" cx="802.98" cy="398.05" fill="rgba(223, 219, 229, 1)"></circle>
        <circle r="5" cx="816.12" cy="553.72" fill="rgba(223, 219, 229, 1)"></circle>
        <circle r="5" cx="810.32" cy="669.27" fill="rgba(223, 219, 229, 1)"></circle>
        <circle r="5" cx="981.6" cy="205.52" fill="rgba(223, 219, 229, 1)"></circle>
        <circle r="5" cx="999.01" cy="361.75" fill="rgba(223, 219, 229, 1)"></circle>
        <circle r="5" cx="970.49" cy="508.57" fill="rgba(223, 219, 229, 1)"></circle>
        <circle r="5" cx="952.09" cy="684.88" fill="rgba(223, 219, 229, 1)"></circle>
        <circle r="5" cx="1108.77" cy="108.38" fill="rgba(223, 219, 229, 1)"></circle>
        <circle r="5" cx="1119.51" cy="203.21" fill="rgba(223, 219, 229, 1)"></circle>
        <circle r="5" cx="1133.54" cy="340.79" fill="rgba(223, 219, 229, 1)"></circle>
        <circle r="5" cx="1110.75" cy="529.44" fill="rgba(223, 219, 229, 1)"></circle>
        <circle r="5" cx="1294.58" cy="-76.88" fill="rgba(223, 219, 229, 1)"></circle>
        <circle r="5" cx="1258.98" cy="61.09" fill="rgba(223, 219, 229, 1)"></circle>
        <circle r="5" cx="1306.12" cy="408.07" fill="rgba(223, 219, 229, 1)"></circle>
        <circle r="5" cx="1275.27" cy="527.59" fill="rgba(223, 219, 229, 1)"></circle>
        <circle r="5" cx="1242.1" cy="697.44" fill="rgba(223, 219, 229, 1)"></circle>
        <circle r="5" cx="1406.97" cy="-89.12" fill="rgba(223, 219, 229, 1)"></circle>
        <circle r="5" cx="1406.92" cy="86.98" fill="rgba(223, 219, 229, 1)"></circle>
        <circle r="5" cx="1397.02" cy="385.49" fill="rgba(223, 219, 229, 1)"></circle>
        <circle r="5" cx="1455.36" cy="561.13" fill="rgba(223, 219, 229, 1)"></circle>
        <circle r="5" cx="1572.96" cy="103.63" fill="rgba(223, 219, 229, 1)"></circle>
        <circle r="5" cx="1549.95" cy="221.68" fill="rgba(223, 219, 229, 1)"></circle>
        <circle r="5" cx="1605.87" cy="376.5" fill="rgba(223, 219, 229, 1)"></circle>
        <circle r="5" cx="1560.86" cy="534.1" fill="rgba(223, 219, 229, 1)"></circle>
        <circle r="5" cx="1746.62" cy="-83.46" fill="rgba(223, 219, 229, 1)"></circle>
        <circle r="5" cx="1730.48" cy="71.06" fill="rgba(223, 219, 229, 1)"></circle>
        <circle r="5" cx="1748.73" cy="201.37" fill="rgba(223, 219, 229, 1)"></circle>
        <circle r="5" cx="1687.51" cy="381.13" fill="rgba(223, 219, 229, 1)"></circle>
        <circle r="5" cx="1718.62" cy="681.05" fill="rgba(223, 219, 229, 1)"></circle>
        <circle r="5" cx="1868.86" cy="-78.1" fill="rgba(223, 219, 229, 1)"></circle>
        <circle r="5" cx="1856.42" cy="93.66" fill="rgba(223, 219, 229, 1)"></circle>
        <circle r="5" cx="1870.12" cy="218.38" fill="rgba(223, 219, 229, 1)"></circle>
        <circle r="5" cx="1864.18" cy="341.64" fill="rgba(223, 219, 229, 1)"></circle>
        <circle r="5" cx="1863.56" cy="518.57" fill="rgba(223, 219, 229, 1)"></circle>
        <circle r="5" cx="1882.67" cy="660.63" fill="rgba(223, 219, 229, 1)"></circle>
        <circle r="5" cx="2057.15" cy="-61.63" fill="rgba(223, 219, 229, 1)"></circle>
        <circle r="5" cx="2020.82" cy="84.17" fill="rgba(223, 219, 229, 1)"></circle>
        <circle r="5" cx="2027.26" cy="205.09" fill="rgba(223, 219, 229, 1)"></circle>
        <circle r="5" cx="2032.12" cy="363.83" fill="rgba(223, 219, 229, 1)"></circle>
        <circle r="5" cx="1990.24" cy="545.51" fill="rgba(223, 219, 229, 1)"></circle>
        <circle r="5" cx="1996.92" cy="646.78" fill="rgba(223, 219, 229, 1)"></circle>
        <path d="M197.42 522.62L197.42 522.62" stroke="hsl(274.29999999999995, 94.4%, 45.4%)" stroke-width="1.5"></path>
        <path d="M197.42 522.62L41.29 499.33" stroke="hsl(274.29999999999995, 94.4%, 45.4%)" stroke-width="1.5"></path>
        <path d="M197.42 522.62L256.46 669.8" stroke="hsl(274.29999999999995, 94.4%, 45.4%)" stroke-width="1.5"></path>
        <path d="M197.42 522.62L382.96 535.97" stroke="hsl(274.29999999999995, 94.4%, 45.4%)" stroke-width="1.5"></path>
        <path d="M197.42 522.62L372.78 647.41" stroke="hsl(274.29999999999995, 94.4%, 45.4%)" stroke-width="1.5"></path>
        <path d="M197.42 522.62L54.66 709.31" stroke="hsl(274.29999999999995, 94.4%, 45.4%)" stroke-width="1.5"></path>
        <path d="M197.42 522.62L-72.63 500.03" stroke="hsl(274.29999999999995, 94.4%, 45.4%)" stroke-width="1.5"></path>
        <path d="M256.46 669.8L256.46 669.8" stroke="hsl(274.29999999999995, 94.4%, 45.4%)" stroke-width="1.5"></path>
        <path d="M256.46 669.8L372.78 647.41" stroke="hsl(274.29999999999995, 94.4%, 45.4%)" stroke-width="1.5"></path>
        <path d="M256.46 669.8L382.96 535.97" stroke="hsl(274.29999999999995, 94.4%, 45.4%)" stroke-width="1.5"></path>
        <path d="M676.16 508.15L676.16 508.15" stroke="hsl(274.29999999999995, 94.4%, 45.4%)" stroke-width="1.5"></path>
        <path d="M676.16 508.15L502.77 556.09" stroke="hsl(274.29999999999995, 94.4%, 45.4%)" stroke-width="1.5"></path>
        <path d="M676.16 508.15L703.66 703.72" stroke="hsl(274.29999999999995, 94.4%, 45.4%)" stroke-width="1.5"></path>
        <path d="M676.16 508.15L818 654.15" stroke="hsl(274.29999999999995, 94.4%, 45.4%)" stroke-width="1.5"></path>
        <path d="M676.16 508.15L510.99 672.96" stroke="hsl(274.29999999999995, 94.4%, 45.4%)" stroke-width="1.5"></path>
        <path d="M676.16 508.15L382.96 535.97" stroke="hsl(274.29999999999995, 94.4%, 45.4%)" stroke-width="1.5"></path>
        <path d="M676.16 508.15L980.89 491.98" stroke="hsl(274.29999999999995, 94.4%, 45.4%)" stroke-width="1.5"></path>
        <path d="M980.89 491.98L980.89 491.98" stroke="hsl(274.29999999999995, 94.4%, 45.4%)" stroke-width="1.5"></path>
        <path d="M980.89 491.98L1088.27 512.49" stroke="hsl(274.29999999999995, 94.4%, 45.4%)" stroke-width="1.5"></path>
        <path d="M980.89 491.98L979.42 376.2" stroke="hsl(274.29999999999995, 94.4%, 45.4%)" stroke-width="1.5"></path>
        <path d="M980.89 491.98L1121.14 371.27" stroke="hsl(274.29999999999995, 94.4%, 45.4%)" stroke-width="1.5"></path>
        <path d="M980.89 491.98L977.43 677.62" stroke="hsl(274.29999999999995, 94.4%, 45.4%)" stroke-width="1.5"></path>
        <path d="M1398.7 254.15L1398.7 254.15" stroke="hsl(274.29999999999995, 94.4%, 45.4%)" stroke-width="1.5"></path>
        <path d="M1398.7 254.15L1460.87 404.76" stroke="hsl(274.29999999999995, 94.4%, 45.4%)" stroke-width="1.5"></path>
        <path d="M1398.7 254.15L1565.47 243.49" stroke="hsl(274.29999999999995, 94.4%, 45.4%)" stroke-width="1.5"></path>
        <path d="M1398.7 254.15L1255.18 405.07" stroke="hsl(274.29999999999995, 94.4%, 45.4%)" stroke-width="1.5"></path>
        <path d="M1398.7 254.15L1574.6 405.26" stroke="hsl(274.29999999999995, 94.4%, 45.4%)" stroke-width="1.5"></path>
        <path d="M1460.87 404.76L1460.87 404.76" stroke="hsl(274.29999999999995, 94.4%, 45.4%)" stroke-width="1.5"></path>
        <path d="M1460.87 404.76L1574.6 405.26" stroke="hsl(274.29999999999995, 94.4%, 45.4%)" stroke-width="1.5"></path>
        <path d="M1460.87 404.76L1389.61 543.25" stroke="hsl(274.29999999999995, 94.4%, 45.4%)" stroke-width="1.5"></path>
        <path d="M1565.47 243.49L1565.47 243.49" stroke="hsl(274.29999999999995, 94.4%, 45.4%)" stroke-width="1.5"></path>
        <path d="M1565.47 243.49L1574.6 405.26" stroke="hsl(274.29999999999995, 94.4%, 45.4%)" stroke-width="1.5"></path>
        <path d="M1565.47 243.49L1567.45 52.97" stroke="hsl(274.29999999999995, 94.4%, 45.4%)" stroke-width="1.5"></path>
        <path d="M1574.6 405.26L1574.6 405.26" stroke="hsl(274.29999999999995, 94.4%, 45.4%)" stroke-width="1.5"></path>
        <path d="M1574.6 405.26L1611.55 489.88" stroke="hsl(274.29999999999995, 94.4%, 45.4%)" stroke-width="1.5"></path>
        <path d="M1574.6 405.26L1744.52 405.63" stroke="hsl(274.29999999999995, 94.4%, 45.4%)" stroke-width="1.5"></path>
        <path d="M1574.6 405.26L1389.61 543.25" stroke="hsl(274.29999999999995, 94.4%, 45.4%)" stroke-width="1.5"></path>
        <path d="M1701.94 68.67L1701.94 68.67" stroke="hsl(274.29999999999995, 94.4%, 45.4%)" stroke-width="1.5"></path>
        <path d="M1701.94 68.67L1567.45 52.97" stroke="hsl(274.29999999999995, 94.4%, 45.4%)" stroke-width="1.5"></path>
        <path d="M1701.94 68.67L1718.09 -89.31" stroke="hsl(274.29999999999995, 94.4%, 45.4%)" stroke-width="1.5"></path>
        <path d="M1701.94 68.67L1875.87 109.75" stroke="hsl(274.29999999999995, 94.4%, 45.4%)" stroke-width="1.5"></path>
        <path d="M1701.94 68.67L1861.38 216.97" stroke="hsl(274.29999999999995, 94.4%, 45.4%)" stroke-width="1.5"></path>
        <path d="M1701.94 68.67L1565.47 243.49" stroke="hsl(274.29999999999995, 94.4%, 45.4%)" stroke-width="1.5"></path>
        <path d="M1701.94 68.67L1906.75 -100.05" stroke="hsl(274.29999999999995, 94.4%, 45.4%)" stroke-width="1.5"></path>
        <path d="M2036.11 -101.28L2036.11 -101.28" stroke="hsl(274.29999999999995, 94.4%, 45.4%)" stroke-width="1.5"></path>
        <path d="M2036.11 -101.28L1906.75 -100.05" stroke="hsl(274.29999999999995, 94.4%, 45.4%)" stroke-width="1.5"></path>
        <path d="M2036.11 -101.28L2049.09 43.83" stroke="hsl(274.29999999999995, 94.4%, 45.4%)" stroke-width="1.5"></path>
        <path d="M-72.63 500.03L-72.63 500.03" stroke="hsl(274.29999999999995, 94.4%, 45.4%)" stroke-width="1.5"></path>
        <path d="M-72.63 500.03L41.29 499.33" stroke="hsl(274.29999999999995, 94.4%, 45.4%)" stroke-width="1.5"></path>
        <path d="M-72.63 500.03L-47.37 644.6" stroke="hsl(274.29999999999995, 94.4%, 45.4%)" stroke-width="1.5"></path>
        <path d="M-72.63 500.03L54.66 709.31" stroke="hsl(274.29999999999995, 94.4%, 45.4%)" stroke-width="1.5"></path>
        <path d="M-47.37 644.6L-47.37 644.6" stroke="hsl(274.29999999999995, 94.4%, 45.4%)" stroke-width="1.5"></path>
        <path d="M-47.37 644.6L54.66 709.31" stroke="hsl(274.29999999999995, 94.4%, 45.4%)" stroke-width="1.5"></path>
        <path d="M-47.37 644.6L41.29 499.33" stroke="hsl(274.29999999999995, 94.4%, 45.4%)" stroke-width="1.5"></path>
        <path d="M-47.37 644.6L197.42 522.62" stroke="hsl(274.29999999999995, 94.4%, 45.4%)" stroke-width="1.5"></path>
        <path d="M-47.37 644.6L256.46 669.8" stroke="hsl(274.29999999999995, 94.4%, 45.4%)" stroke-width="1.5"></path>
        <path d="M41.29 499.33L41.29 499.33" stroke="hsl(274.29999999999995, 94.4%, 45.4%)" stroke-width="1.5"></path>
        <path d="M41.29 499.33L54.66 709.31" stroke="hsl(274.29999999999995, 94.4%, 45.4%)" stroke-width="1.5"></path>
        <path d="M41.29 499.33L256.46 669.8" stroke="hsl(274.29999999999995, 94.4%, 45.4%)" stroke-width="1.5"></path>
        <path d="M41.29 499.33L382.96 535.97" stroke="hsl(274.29999999999995, 94.4%, 45.4%)" stroke-width="1.5"></path>
        <path d="M54.66 709.31L54.66 709.31" stroke="hsl(274.29999999999995, 94.4%, 45.4%)" stroke-width="1.5"></path>
        <path d="M54.66 709.31L256.46 669.8" stroke="hsl(274.29999999999995, 94.4%, 45.4%)" stroke-width="1.5"></path>
        <path d="M382.96 535.97L382.96 535.97" stroke="hsl(274.29999999999995, 94.4%, 45.4%)" stroke-width="1.5"></path>
        <path d="M382.96 535.97L372.78 647.41" stroke="hsl(274.29999999999995, 94.4%, 45.4%)" stroke-width="1.5"></path>
        <path d="M382.96 535.97L502.77 556.09" stroke="hsl(274.29999999999995, 94.4%, 45.4%)" stroke-width="1.5"></path>
        <path d="M382.96 535.97L510.99 672.96" stroke="hsl(274.29999999999995, 94.4%, 45.4%)" stroke-width="1.5"></path>
        <path d="M372.78 647.41L372.78 647.41" stroke="hsl(274.29999999999995, 94.4%, 45.4%)" stroke-width="1.5"></path>
        <path d="M372.78 647.41L510.99 672.96" stroke="hsl(274.29999999999995, 94.4%, 45.4%)" stroke-width="1.5"></path>
        <path d="M372.78 647.41L502.77 556.09" stroke="hsl(274.29999999999995, 94.4%, 45.4%)" stroke-width="1.5"></path>
        <path d="M502.77 556.09L502.77 556.09" stroke="hsl(274.29999999999995, 94.4%, 45.4%)" stroke-width="1.5"></path>
        <path d="M502.77 556.09L510.99 672.96" stroke="hsl(274.29999999999995, 94.4%, 45.4%)" stroke-width="1.5"></path>
        <path d="M502.77 556.09L703.66 703.72" stroke="hsl(274.29999999999995, 94.4%, 45.4%)" stroke-width="1.5"></path>
        <path d="M510.99 672.96L510.99 672.96" stroke="hsl(274.29999999999995, 94.4%, 45.4%)" stroke-width="1.5"></path>
        <path d="M510.99 672.96L703.66 703.72" stroke="hsl(274.29999999999995, 94.4%, 45.4%)" stroke-width="1.5"></path>
        <path d="M510.99 672.96L256.46 669.8" stroke="hsl(274.29999999999995, 94.4%, 45.4%)" stroke-width="1.5"></path>
        <path d="M703.66 703.72L703.66 703.72" stroke="hsl(274.29999999999995, 94.4%, 45.4%)" stroke-width="1.5"></path>
        <path d="M703.66 703.72L818 654.15" stroke="hsl(274.29999999999995, 94.4%, 45.4%)" stroke-width="1.5"></path>
        <path d="M818 654.15L818 654.15" stroke="hsl(274.29999999999995, 94.4%, 45.4%)" stroke-width="1.5"></path>
        <path d="M818 654.15L977.43 677.62" stroke="hsl(274.29999999999995, 94.4%, 45.4%)" stroke-width="1.5"></path>
        <path d="M818 654.15L980.89 491.98" stroke="hsl(274.29999999999995, 94.4%, 45.4%)" stroke-width="1.5"></path>
        <path d="M818 654.15L1088.27 512.49" stroke="hsl(274.29999999999995, 94.4%, 45.4%)" stroke-width="1.5"></path>
        <path d="M979.42 376.2L979.42 376.2" stroke="hsl(274.29999999999995, 94.4%, 45.4%)" stroke-width="1.5"></path>
        <path d="M979.42 376.2L1121.14 371.27" stroke="hsl(274.29999999999995, 94.4%, 45.4%)" stroke-width="1.5"></path>
        <path d="M979.42 376.2L1088.27 512.49" stroke="hsl(274.29999999999995, 94.4%, 45.4%)" stroke-width="1.5"></path>
        <path d="M979.42 376.2L1255.18 405.07" stroke="hsl(274.29999999999995, 94.4%, 45.4%)" stroke-width="1.5"></path>
        <path d="M979.42 376.2L977.43 677.62" stroke="hsl(274.29999999999995, 94.4%, 45.4%)" stroke-width="1.5"></path>
        <path d="M977.43 677.62L977.43 677.62" stroke="hsl(274.29999999999995, 94.4%, 45.4%)" stroke-width="1.5"></path>
        <path d="M977.43 677.62L1088.27 512.49" stroke="hsl(274.29999999999995, 94.4%, 45.4%)" stroke-width="1.5"></path>
        <path d="M1121.14 371.27L1121.14 371.27" stroke="hsl(274.29999999999995, 94.4%, 45.4%)" stroke-width="1.5"></path>
        <path d="M1121.14 371.27L1255.18 405.07" stroke="hsl(274.29999999999995, 94.4%, 45.4%)" stroke-width="1.5"></path>
        <path d="M1121.14 371.27L1088.27 512.49" stroke="hsl(274.29999999999995, 94.4%, 45.4%)" stroke-width="1.5"></path>
        <path d="M1088.27 512.49L1088.27 512.49" stroke="hsl(274.29999999999995, 94.4%, 45.4%)" stroke-width="1.5"></path>
        <path d="M1088.27 512.49L1255.18 405.07" stroke="hsl(274.29999999999995, 94.4%, 45.4%)" stroke-width="1.5"></path>
        <path d="M1255.18 405.07L1255.18 405.07" stroke="hsl(274.29999999999995, 94.4%, 45.4%)" stroke-width="1.5"></path>
        <path d="M1255.18 405.07L1309.33 504.27" stroke="hsl(274.29999999999995, 94.4%, 45.4%)" stroke-width="1.5"></path>
        <path d="M1255.18 405.07L1389.61 543.25" stroke="hsl(274.29999999999995, 94.4%, 45.4%)" stroke-width="1.5"></path>
        <path d="M1309.33 504.27L1309.33 504.27" stroke="hsl(274.29999999999995, 94.4%, 45.4%)" stroke-width="1.5"></path>
        <path d="M1309.33 504.27L1389.61 543.25" stroke="hsl(274.29999999999995, 94.4%, 45.4%)" stroke-width="1.5"></path>
        <path d="M1241.31 700.91L1241.31 700.91" stroke="hsl(274.29999999999995, 94.4%, 45.4%)" stroke-width="1.5"></path>
        <path d="M1241.31 700.91L1438.9 651.88" stroke="hsl(274.29999999999995, 94.4%, 45.4%)" stroke-width="1.5"></path>
        <path d="M1389.61 543.25L1389.61 543.25" stroke="hsl(274.29999999999995, 94.4%, 45.4%)" stroke-width="1.5"></path>
        <path d="M1389.61 543.25L1438.9 651.88" stroke="hsl(274.29999999999995, 94.4%, 45.4%)" stroke-width="1.5"></path>
        <path d="M1438.9 651.88L1438.9 651.88" stroke="hsl(274.29999999999995, 94.4%, 45.4%)" stroke-width="1.5"></path>
        <path d="M1438.9 651.88L1552.78 680.19" stroke="hsl(274.29999999999995, 94.4%, 45.4%)" stroke-width="1.5"></path>
        <path d="M1438.9 651.88L1309.33 504.27" stroke="hsl(274.29999999999995, 94.4%, 45.4%)" stroke-width="1.5"></path>
        <path d="M1567.45 52.97L1567.45 52.97" stroke="hsl(274.29999999999995, 94.4%, 45.4%)" stroke-width="1.5"></path>
        <path d="M1567.45 52.97L1718.09 -89.31" stroke="hsl(274.29999999999995, 94.4%, 45.4%)" stroke-width="1.5"></path>
        <path d="M1567.45 52.97L1398.7 254.15" stroke="hsl(274.29999999999995, 94.4%, 45.4%)" stroke-width="1.5"></path>
        <path d="M1567.45 52.97L1875.87 109.75" stroke="hsl(274.29999999999995, 94.4%, 45.4%)" stroke-width="1.5"></path>
        <path d="M1567.45 52.97L1861.38 216.97" stroke="hsl(274.29999999999995, 94.4%, 45.4%)" stroke-width="1.5"></path>
        <path d="M1611.55 489.88L1611.55 489.88" stroke="hsl(274.29999999999995, 94.4%, 45.4%)" stroke-width="1.5"></path>
        <path d="M1611.55 489.88L1744.52 405.63" stroke="hsl(274.29999999999995, 94.4%, 45.4%)" stroke-width="1.5"></path>
        <path d="M1611.55 489.88L1460.87 404.76" stroke="hsl(274.29999999999995, 94.4%, 45.4%)" stroke-width="1.5"></path>
        <path d="M1611.55 489.88L1552.78 680.19" stroke="hsl(274.29999999999995, 94.4%, 45.4%)" stroke-width="1.5"></path>
        <path d="M1552.78 680.19L1552.78 680.19" stroke="hsl(274.29999999999995, 94.4%, 45.4%)" stroke-width="1.5"></path>
        <path d="M1552.78 680.19L1752.46 677.32" stroke="hsl(274.29999999999995, 94.4%, 45.4%)" stroke-width="1.5"></path>
        <path d="M1552.78 680.19L1389.61 543.25" stroke="hsl(274.29999999999995, 94.4%, 45.4%)" stroke-width="1.5"></path>
        <path d="M1552.78 680.19L1574.6 405.26" stroke="hsl(274.29999999999995, 94.4%, 45.4%)" stroke-width="1.5"></path>
        <path d="M1718.09 -89.31L1718.09 -89.31" stroke="hsl(274.29999999999995, 94.4%, 45.4%)" stroke-width="1.5"></path>
        <path d="M1718.09 -89.31L1906.75 -100.05" stroke="hsl(274.29999999999995, 94.4%, 45.4%)" stroke-width="1.5"></path>
        <path d="M1718.09 -89.31L1875.87 109.75" stroke="hsl(274.29999999999995, 94.4%, 45.4%)" stroke-width="1.5"></path>
        <path d="M1718.09 -89.31L2036.11 -101.28" stroke="hsl(274.29999999999995, 94.4%, 45.4%)" stroke-width="1.5"></path>
        <path d="M1718.09 -89.31L1861.38 216.97" stroke="hsl(274.29999999999995, 94.4%, 45.4%)" stroke-width="1.5"></path>
        <path d="M1744.52 405.63L1744.52 405.63" stroke="hsl(274.29999999999995, 94.4%, 45.4%)" stroke-width="1.5"></path>
        <path d="M1744.52 405.63L1874.71 380.31" stroke="hsl(274.29999999999995, 94.4%, 45.4%)" stroke-width="1.5"></path>
        <path d="M1744.52 405.63L1868.35 489.18" stroke="hsl(274.29999999999995, 94.4%, 45.4%)" stroke-width="1.5"></path>
        <path d="M1752.46 677.32L1752.46 677.32" stroke="hsl(274.29999999999995, 94.4%, 45.4%)" stroke-width="1.5"></path>
        <path d="M1752.46 677.32L1901.55 670.34" stroke="hsl(274.29999999999995, 94.4%, 45.4%)" stroke-width="1.5"></path>
        <path d="M1906.75 -100.05L1906.75 -100.05" stroke="hsl(274.29999999999995, 94.4%, 45.4%)" stroke-width="1.5"></path>
        <path d="M1906.75 -100.05L2049.09 43.83" stroke="hsl(274.29999999999995, 94.4%, 45.4%)" stroke-width="1.5"></path>
        <path d="M1906.75 -100.05L1875.87 109.75" stroke="hsl(274.29999999999995, 94.4%, 45.4%)" stroke-width="1.5"></path>
        <path d="M1875.87 109.75L1875.87 109.75" stroke="hsl(274.29999999999995, 94.4%, 45.4%)" stroke-width="1.5"></path>
        <path d="M1875.87 109.75L1861.38 216.97" stroke="hsl(274.29999999999995, 94.4%, 45.4%)" stroke-width="1.5"></path>
        <path d="M1875.87 109.75L2049.09 43.83" stroke="hsl(274.29999999999995, 94.4%, 45.4%)" stroke-width="1.5"></path>
        <path d="M1875.87 109.75L2034.87 223.14" stroke="hsl(274.29999999999995, 94.4%, 45.4%)" stroke-width="1.5"></path>
        <path d="M1861.38 216.97L1861.38 216.97" stroke="hsl(274.29999999999995, 94.4%, 45.4%)" stroke-width="1.5"></path>
        <path d="M1861.38 216.97L1874.71 380.31" stroke="hsl(274.29999999999995, 94.4%, 45.4%)" stroke-width="1.5"></path>
        <path d="M1861.38 216.97L2034.87 223.14" stroke="hsl(274.29999999999995, 94.4%, 45.4%)" stroke-width="1.5"></path>
        <path d="M1861.38 216.97L1744.52 405.63" stroke="hsl(274.29999999999995, 94.4%, 45.4%)" stroke-width="1.5"></path>
        <path d="M1874.71 380.31L1874.71 380.31" stroke="hsl(274.29999999999995, 94.4%, 45.4%)" stroke-width="1.5"></path>
        <path d="M1874.71 380.31L1868.35 489.18" stroke="hsl(274.29999999999995, 94.4%, 45.4%)" stroke-width="1.5"></path>
        <path d="M1874.71 380.31L2023.63 371.45" stroke="hsl(274.29999999999995, 94.4%, 45.4%)" stroke-width="1.5"></path>
        <path d="M1868.35 489.18L1868.35 489.18" stroke="hsl(274.29999999999995, 94.4%, 45.4%)" stroke-width="1.5"></path>
        <path d="M1868.35 489.18L2015.11 531.1" stroke="hsl(274.29999999999995, 94.4%, 45.4%)" stroke-width="1.5"></path>
        <path d="M1868.35 489.18L1901.55 670.34" stroke="hsl(274.29999999999995, 94.4%, 45.4%)" stroke-width="1.5"></path>
        <path d="M1868.35 489.18L2023.63 371.45" stroke="hsl(274.29999999999995, 94.4%, 45.4%)" stroke-width="1.5"></path>
        <path d="M1901.55 670.34L1901.55 670.34" stroke="hsl(274.29999999999995, 94.4%, 45.4%)" stroke-width="1.5"></path>
        <path d="M1901.55 670.34L1989.54 694.45" stroke="hsl(274.29999999999995, 94.4%, 45.4%)" stroke-width="1.5"></path>
        <path d="M2049.09 43.83L2049.09 43.83" stroke="hsl(274.29999999999995, 94.4%, 45.4%)" stroke-width="1.5"></path>
        <path d="M2049.09 43.83L2034.87 223.14" stroke="hsl(274.29999999999995, 94.4%, 45.4%)" stroke-width="1.5"></path>
        <path d="M2034.87 223.14L2034.87 223.14" stroke="hsl(274.29999999999995, 94.4%, 45.4%)" stroke-width="1.5"></path>
        <path d="M2034.87 223.14L2023.63 371.45" stroke="hsl(274.29999999999995, 94.4%, 45.4%)" stroke-width="1.5"></path>
        <path d="M2034.87 223.14L1874.71 380.31" stroke="hsl(274.29999999999995, 94.4%, 45.4%)" stroke-width="1.5"></path>
        <path d="M2023.63 371.45L2023.63 371.45" stroke="hsl(274.29999999999995, 94.4%, 45.4%)" stroke-width="1.5"></path>
        <path d="M2015.11 531.1L2015.11 531.1" stroke="hsl(274.29999999999995, 94.4%, 45.4%)" stroke-width="1.5"></path>
        <path d="M2015.11 531.1L2023.63 371.45" stroke="hsl(274.29999999999995, 94.4%, 45.4%)" stroke-width="1.5"></path>
        <path d="M2015.11 531.1L1989.54 694.45" stroke="hsl(274.29999999999995, 94.4%, 45.4%)" stroke-width="1.5"></path>
        <path d="M1989.54 694.45L1989.54 694.45" stroke="hsl(274.29999999999995, 94.4%, 45.4%)" stroke-width="1.5"></path>
        <circle r="25" cx="197.42" cy="522.62" fill="url(&quot;#SvgjsRadialGradient1050&quot;)"></circle>
        <circle r="25" cx="256.46" cy="669.8" fill="url(&quot;#SvgjsRadialGradient1050&quot;)"></circle>
        <circle r="25" cx="676.16" cy="508.15" fill="url(&quot;#SvgjsRadialGradient1050&quot;)"></circle>
        <circle r="25" cx="980.89" cy="491.98" fill="url(&quot;#SvgjsRadialGradient1050&quot;)"></circle>
        <circle r="25" cx="1398.7" cy="254.15" fill="url(&quot;#SvgjsRadialGradient1050&quot;)"></circle>
        <circle r="25" cx="1460.87" cy="404.76" fill="url(&quot;#SvgjsRadialGradient1050&quot;)"></circle>
        <circle r="25" cx="1565.47" cy="243.49" fill="url(&quot;#SvgjsRadialGradient1050&quot;)"></circle>
        <circle r="25" cx="1574.6" cy="405.26" fill="url(&quot;#SvgjsRadialGradient1050&quot;)"></circle>
        <circle r="25" cx="1701.94" cy="68.67" fill="url(&quot;#SvgjsRadialGradient1050&quot;)"></circle>
        <circle r="25" cx="2036.11" cy="-101.28" fill="url(&quot;#SvgjsRadialGradient1050&quot;)"></circle>
        <circle r="5" cx="-72.63" cy="500.03" fill="#b282d6"></circle>
        <circle r="5" cx="-47.37" cy="644.6" fill="#b282d6"></circle>
        <circle r="5" cx="41.29" cy="499.33" fill="#b282d6"></circle>
        <circle r="5" cx="54.66" cy="709.31" fill="#b282d6"></circle>
        <circle r="5" cx="382.96" cy="535.97" fill="#b282d6"></circle>
        <circle r="5" cx="372.78" cy="647.41" fill="#b282d6"></circle>
        <circle r="5" cx="502.77" cy="556.09" fill="#b282d6"></circle>
        <circle r="5" cx="510.99" cy="672.96" fill="#b282d6"></circle>
        <circle r="5" cx="703.66" cy="703.72" fill="#b282d6"></circle>
        <circle r="5" cx="818" cy="654.15" fill="#b282d6"></circle>
        <circle r="5" cx="979.42" cy="376.2" fill="#b282d6"></circle>
        <circle r="5" cx="977.43" cy="677.62" fill="#b282d6"></circle>
        <circle r="5" cx="1121.14" cy="371.27" fill="#b282d6"></circle>
        <circle r="5" cx="1088.27" cy="512.49" fill="#b282d6"></circle>
        <circle r="5" cx="1255.18" cy="405.07" fill="#b282d6"></circle>
        <circle r="5" cx="1309.33" cy="504.27" fill="#b282d6"></circle>
        <circle r="5" cx="1241.31" cy="700.91" fill="#b282d6"></circle>
        <circle r="5" cx="1389.61" cy="543.25" fill="#b282d6"></circle>
        <circle r="5" cx="1438.9" cy="651.88" fill="#b282d6"></circle>
        <circle r="5" cx="1567.45" cy="52.97" fill="#b282d6"></circle>
        <circle r="5" cx="1611.55" cy="489.88" fill="#b282d6"></circle>
        <circle r="5" cx="1552.78" cy="680.19" fill="#b282d6"></circle>
        <circle r="5" cx="1718.09" cy="-89.31" fill="#b282d6"></circle>
        <circle r="5" cx="1744.52" cy="405.63" fill="#b282d6"></circle>
        <circle r="5" cx="1752.46" cy="677.32" fill="#b282d6"></circle>
        <circle r="5" cx="1906.75" cy="-100.05" fill="#b282d6"></circle>
        <circle r="5" cx="1875.87" cy="109.75" fill="#b282d6"></circle>
        <circle r="5" cx="1861.38" cy="216.97" fill="#b282d6"></circle>
        <circle r="5" cx="1874.71" cy="380.31" fill="#b282d6"></circle>
        <circle r="5" cx="1868.35" cy="489.18" fill="#b282d6"></circle>
        <circle r="5" cx="1901.55" cy="670.34" fill="#b282d6"></circle>
        <circle r="5" cx="2049.09" cy="43.83" fill="#b282d6"></circle>
        <circle r="5" cx="2034.87" cy="223.14" fill="#b282d6"></circle>
        <circle r="5" cx="2023.63" cy="371.45" fill="#b282d6"></circle>
        <circle r="5" cx="2015.11" cy="531.1" fill="#b282d6"></circle>
        <circle r="5" cx="1989.54" cy="694.45" fill="#b282d6"></circle>
    </g>
    <defs>
        <mask id="SvgjsMask1048">
            <rect width="1903" height="572" fill="#ffffff"></rect>
        </mask>
        <linearGradient x1="50%" y1="0%" x2="50%" y2="100%" gradientUnits="userSpaceOnUse" id="SvgjsLinearGradient1049">
            <stop stop-color="rgba(223, 219, 229, 1)" offset="0"></stop>
            <stop stop-color="rgba(248, 249, 250, 1)" offset="1"></stop>
        </linearGradient>
        <radialGradient id="SvgjsRadialGradient1050">
            <stop stop-color="#ffffff" offset="0.1"></stop>
            <stop stop-color="rgba(101, 5, 173, 1)" offset="0.2"></stop>
            <stop stop-color="rgba(101, 5, 173, 0)" offset="1"></stop>
        </radialGradient>
    </defs>
</svg>