<svg xmlns="http://www.w3.org/2000/svg" version="1.1" xmlns:xlink="http://www.w3.org/1999/xlink" xmlns:svgjs="http://svgjs.dev/svgjs" width="1440" height="560" preserveAspectRatio="none" viewBox="0 0 1440 560">
    <g mask="url(&quot;#SvgjsMask1040&quot;)" fill="none">
        <rect width="1440" height="560" x="0" y="0" fill="url(&quot;#SvgjsLinearGradient1041&quot;)"></rect>
        <path d="M967.4264413326904 446.8427323021624L1113.4758174386993 491.49450758566473 1012.0782166161927 300.79335619615335z" fill="rgba(11, 0, 31, 1)" class="triangle-float2"></path>
        <path d="M1090.64,506.482C1140.727,506.076,1185.759,474.37,1207.716,429.35C1227.408,388.975,1213.747,342.448,1188.891,305.031C1166.923,271.961,1130.334,253.915,1090.64,253.11C1049.301,252.271,1008.385,266.641,985.232,300.899C958.977,339.746,948.834,389.556,970.226,431.278C993.368,476.412,1039.921,506.894,1090.64,506.482" fill="rgba(11, 0, 31, 1)" class="triangle-float1"></path>
        <path d="M255.992,784.328C314.953,781.881,354.302,730.168,382.813,678.501C410.083,629.084,428.891,570.629,400.991,521.565C372.85,472.077,312.914,456.417,255.992,455.478C196.958,454.505,133.759,466.575,102.468,516.643C69.647,569.161,78.712,636.123,109.523,689.845C140.503,743.863,193.775,786.911,255.992,784.328" fill="rgba(11, 0, 31, 1)" class="triangle-float1"></path>
        <path d="M442.892,464.937C471.159,467.208,501.519,458.983,516.321,434.795C531.643,409.757,526.027,378.296,511.529,352.772C496.825,326.886,472.663,305.414,442.892,305.522C413.271,305.629,387.633,326.423,375.108,353.265C364.197,376.649,374.014,402.378,387.403,424.436C400.138,445.416,418.428,462.971,442.892,464.937" fill="rgba(11, 0, 31, 1)" class="triangle-float1"></path>
        <path d="M674.772,630.499C717.288,629.597,757.747,606.969,776.594,568.848C793.771,534.104,778.316,495.02,758.104,461.95C739.005,430.701,711.395,402.347,674.772,402.252C638.021,402.157,610.515,430.572,590.692,461.518C568.59,496.021,546.928,536.649,565.181,573.334C584.853,612.87,630.622,631.436,674.772,630.499" fill="rgba(11, 0, 31, 1)" class="triangle-float1"></path>
        <path d="M704.44,416.776C728.854,417.458,749.928,401.46,762.334,380.421C774.962,359.006,778.789,332.771,766.824,310.979C754.439,288.423,730.168,275.43,704.44,274.98C677.872,274.516,650.3,285.092,638.163,308.73C626.746,330.967,638.816,356.03,651.887,377.338C664.162,397.348,680.974,416.121,704.44,416.776" fill="rgba(11, 0, 31, 1)" class="triangle-float3"></path>
        <path d="M1004.011153191644 358.93604828268974L1024.9502462950852 491.14027908046364 1136.215383989418 337.99695517924846z" fill="rgba(11, 0, 31, 1)" class="triangle-float2"></path>
        <path d="M684.1079736082532 47.56222919435951L663.996190214594 190.66500381675192 807.0989648369864 210.77678721041116 827.2107482306457 67.67401258801874z" fill="rgba(11, 0, 31, 1)" class="triangle-float1"></path>
        <path d="M1113.12 143.11 a103.01 103.01 0 1 0 206.02 0 a103.01 103.01 0 1 0 -206.02 0z" fill="rgba(11, 0, 31, 1)" class="triangle-float3"></path>
        <path d="M177.425,527.172C200.875,527.974,222.459,515.291,234.906,495.4C248.211,474.139,253.33,447.348,241.067,425.469C228.575,403.181,202.887,390.733,177.425,392.847C154.845,394.721,140.182,414.576,129.784,434.707C120.425,452.827,117.031,473.56,126.372,491.689C136.546,511.434,155.226,526.413,177.425,527.172" fill="rgba(11, 0, 31, 1)" class="triangle-float3"></path>
    </g>
    <defs>
        <mask id="SvgjsMask1040">
            <rect width="1440" height="560" fill="#ffffff"></rect>
        </mask>
        <linearGradient x1="50%" y1="100%" x2="50%" y2="0%" gradientUnits="userSpaceOnUse" id="SvgjsLinearGradient1041">
            <stop stop-color="rgba(37, 38, 43, 1)" offset="0"></stop>
            <stop stop-color="rgba(26, 27, 30, 1)" offset="1"></stop>
        </linearGradient>
        <style>
            @keyframes float1 {
                    0%{transform: translate(0, 0)}
                    50%{transform: translate(-10px, 0)}
                    100%{transform: translate(0, 0)}
                }

                .triangle-float1 {
                    animation: float1 5s infinite;
                }

                @keyframes float2 {
                    0%{transform: translate(0, 0)}
                    50%{transform: translate(-5px, -5px)}
                    100%{transform: translate(0, 0)}
                }

                .triangle-float2 {
                    animation: float2 4s infinite;
                }

                @keyframes float3 {
                    0%{transform: translate(0, 0)}
                    50%{transform: translate(0, -10px)}
                    100%{transform: translate(0, 0)}
                }

                .triangle-float3 {
                    animation: float3 6s infinite;
                }
        </style>
    </defs>
</svg>